<svg width="321" height="53" viewBox="0 0 321 53" fill="none" xmlns="http://www.w3.org/2000/svg">
<g filter="url(#filter0_d_1_2900)">
<rect x="0.125" width="320" height="48" rx="16" fill="#235390"/>
<rect x="1.125" y="1" width="318" height="46" rx="15" stroke="#042C60" stroke-width="2"/>
</g>
<path d="M53.8177 19.5455V29H51.8188V19.5455H53.8177ZM61.7007 29H59.5587L62.8225 19.5455H65.3985L68.6578 29H66.5157L64.1475 21.706H64.0736L61.7007 29ZM61.5669 25.2837H66.6265V26.8441H61.5669V25.2837ZM70.5957 29V19.5455H72.5947V27.3519H76.6479V29H70.5957ZM78.7717 29V19.5455H82.5018C83.2158 19.5455 83.8252 19.6732 84.3299 19.9286C84.8378 20.181 85.224 20.5395 85.4887 21.0043C85.7564 21.4659 85.8903 22.0091 85.8903 22.6339C85.8903 23.2617 85.7549 23.8018 85.4841 24.2543C85.2132 24.7036 84.8208 25.0483 84.3069 25.2884C83.796 25.5284 83.1774 25.6484 82.451 25.6484H79.9535V24.0419H82.1279C82.5095 24.0419 82.8265 23.9896 83.0789 23.8849C83.3313 23.7803 83.519 23.6233 83.6421 23.4141C83.7683 23.2048 83.8314 22.9447 83.8314 22.6339C83.8314 22.32 83.7683 22.0553 83.6421 21.8398C83.519 21.6244 83.3297 21.4613 83.0743 21.3505C82.8219 21.2366 82.5034 21.1797 82.1187 21.1797H80.7706V29H78.7717ZM83.8775 24.6974L86.2273 29H84.0206L81.7216 24.6974H83.8775ZM88.103 29V19.5455H94.4737V21.1935H90.1019V23.4464H94.1459V25.0945H90.1019V27.3519H94.4922V29H88.103ZM98.4925 29H96.3505L99.6143 19.5455H102.19L105.45 29H103.308L100.939 21.706H100.865L98.4925 29ZM98.3587 25.2837H103.418V26.8441H98.3587V25.2837ZM110.739 29H107.388V19.5455H110.767C111.718 19.5455 112.536 19.7347 113.223 20.1133C113.909 20.4888 114.437 21.0289 114.806 21.7337C115.179 22.4384 115.365 23.2817 115.365 24.2635C115.365 25.2483 115.179 26.0947 114.806 26.8026C114.437 27.5104 113.906 28.0536 113.214 28.4322C112.524 28.8107 111.699 29 110.739 29ZM109.386 27.2873H110.656C111.247 27.2873 111.744 27.1826 112.147 26.9734C112.553 26.761 112.858 26.4332 113.061 25.9901C113.267 25.5438 113.37 24.9683 113.37 24.2635C113.37 23.5649 113.267 22.994 113.061 22.5508C112.858 22.1076 112.555 21.7814 112.152 21.5721C111.749 21.3628 111.252 21.2582 110.661 21.2582H109.386V27.2873ZM116.52 19.5455H118.759L120.915 23.6172H121.007L123.163 19.5455H125.402L121.954 25.6577V29H119.969V25.6577L116.52 19.5455ZM131.103 29V19.5455H133.102V23.4464H137.16V19.5455H139.154V29H137.16V25.0945H133.102V29H131.103ZM143.232 29H141.09L144.354 19.5455H146.93L150.189 29H148.047L145.679 21.706H145.605L143.232 29ZM143.098 25.2837H148.158V26.8441H143.098V25.2837ZM152.654 19.5455L154.939 26.7287H155.027L157.317 19.5455H159.533L156.274 29H153.698L150.434 19.5455H152.654ZM161.471 29V19.5455H167.841V21.1935H163.47V23.4464H167.514V25.0945H163.47V27.3519H167.86V29H161.471ZM175.669 29H173.527L176.791 19.5455H179.367L182.626 29H180.484L178.116 21.706H178.042L175.669 29ZM175.535 25.2837H180.595V26.8441H175.535V25.2837ZM192.472 19.5455V29H190.746L186.632 23.0494H186.563V29H184.564V19.5455H186.318L190.399 25.4915H190.482V19.5455H192.472ZM200.362 29H198.22L201.484 19.5455H204.06L207.319 29H205.177L202.809 21.706H202.735L200.362 29ZM200.228 25.2837H205.288V26.8441H200.228V25.2837ZM217.155 22.8555H215.133C215.096 22.5939 215.02 22.3615 214.906 22.1584C214.793 21.9522 214.646 21.7768 214.468 21.6321C214.289 21.4875 214.083 21.3767 213.849 21.2997C213.618 21.2228 213.368 21.1843 213.097 21.1843C212.607 21.1843 212.181 21.3059 211.818 21.549C211.455 21.7891 211.173 22.1399 210.973 22.6016C210.773 23.0601 210.673 23.6172 210.673 24.2727C210.673 24.9467 210.773 25.513 210.973 25.9716C211.176 26.4302 211.46 26.7764 211.823 27.0103C212.186 27.2442 212.606 27.3612 213.083 27.3612C213.351 27.3612 213.598 27.3258 213.826 27.255C214.057 27.1842 214.262 27.0811 214.44 26.9457C214.619 26.8072 214.766 26.6394 214.883 26.4425C215.003 26.2455 215.087 26.0208 215.133 25.7685L217.155 25.7777C217.102 26.2116 216.972 26.6302 216.762 27.0334C216.556 27.4335 216.278 27.792 215.927 28.109C215.579 28.4229 215.163 28.6722 214.68 28.8569C214.2 29.0385 213.657 29.1293 213.051 29.1293C212.207 29.1293 211.453 28.9384 210.789 28.5568C210.127 28.1752 209.604 27.6228 209.219 26.8995C208.837 26.1763 208.647 25.3007 208.647 24.2727C208.647 23.2417 208.84 22.3646 209.228 21.6413C209.616 20.9181 210.142 20.3672 210.807 19.9886C211.472 19.607 212.22 19.4162 213.051 19.4162C213.598 19.4162 214.106 19.4931 214.574 19.647C215.045 19.8009 215.462 20.0256 215.825 20.321C216.188 20.6134 216.484 20.9719 216.712 21.3967C216.942 21.8214 217.09 22.3076 217.155 22.8555ZM227.73 22.8555H225.708C225.671 22.5939 225.596 22.3615 225.482 22.1584C225.368 21.9522 225.222 21.7768 225.043 21.6321C224.865 21.4875 224.659 21.3767 224.425 21.2997C224.194 21.2228 223.943 21.1843 223.672 21.1843C223.183 21.1843 222.757 21.3059 222.393 21.549C222.03 21.7891 221.749 22.1399 221.549 22.6016C221.349 23.0601 221.249 23.6172 221.249 24.2727C221.249 24.9467 221.349 25.513 221.549 25.9716C221.752 26.4302 222.035 26.7764 222.398 27.0103C222.761 27.2442 223.181 27.3612 223.658 27.3612C223.926 27.3612 224.174 27.3258 224.402 27.255C224.632 27.1842 224.837 27.0811 225.016 26.9457C225.194 26.8072 225.342 26.6394 225.459 26.4425C225.579 26.2455 225.662 26.0208 225.708 25.7685L227.73 25.7777C227.678 26.2116 227.547 26.6302 227.338 27.0334C227.131 27.4335 226.853 27.792 226.502 28.109C226.154 28.4229 225.739 28.6722 225.256 28.8569C224.776 29.0385 224.232 29.1293 223.626 29.1293C222.783 29.1293 222.029 28.9384 221.364 28.5568C220.702 28.1752 220.179 27.6228 219.794 26.8995C219.413 26.1763 219.222 25.3007 219.222 24.2727C219.222 23.2417 219.416 22.3646 219.804 21.6413C220.191 20.9181 220.718 20.3672 221.382 19.9886C222.047 19.607 222.795 19.4162 223.626 19.4162C224.174 19.4162 224.682 19.4931 225.149 19.647C225.62 19.8009 226.037 20.0256 226.401 20.321C226.764 20.6134 227.059 20.9719 227.287 21.3967C227.518 21.8214 227.665 22.3076 227.73 22.8555ZM238.652 24.2727C238.652 25.3037 238.456 26.1809 238.065 26.9041C237.678 27.6274 237.148 28.1798 236.477 28.5614C235.81 28.94 235.059 29.1293 234.225 29.1293C233.384 29.1293 232.63 28.9384 231.962 28.5568C231.295 28.1752 230.767 27.6228 230.379 26.8995C229.991 26.1763 229.797 25.3007 229.797 24.2727C229.797 23.2417 229.991 22.3646 230.379 21.6413C230.767 20.9181 231.295 20.3672 231.962 19.9886C232.63 19.607 233.384 19.4162 234.225 19.4162C235.059 19.4162 235.81 19.607 236.477 19.9886C237.148 20.3672 237.678 20.9181 238.065 21.6413C238.456 22.3646 238.652 23.2417 238.652 24.2727ZM236.625 24.2727C236.625 23.6049 236.525 23.0417 236.325 22.5831C236.128 22.1245 235.85 21.7768 235.489 21.5398C235.129 21.3028 234.708 21.1843 234.225 21.1843C233.741 21.1843 233.32 21.3028 232.96 21.5398C232.6 21.7768 232.319 22.1245 232.119 22.5831C231.922 23.0417 231.824 23.6049 231.824 24.2727C231.824 24.9406 231.922 25.5038 232.119 25.9624C232.319 26.4209 232.6 26.7687 232.96 27.0057C233.32 27.2427 233.741 27.3612 234.225 27.3612C234.708 27.3612 235.129 27.2427 235.489 27.0057C235.85 26.7687 236.128 26.4209 236.325 25.9624C236.525 25.5038 236.625 24.9406 236.625 24.2727ZM246.772 19.5455H248.771V25.6854C248.771 26.3748 248.607 26.978 248.277 27.495C247.951 28.0121 247.494 28.4152 246.906 28.7045C246.318 28.9908 245.634 29.1339 244.852 29.1339C244.067 29.1339 243.381 28.9908 242.793 28.7045C242.205 28.4152 241.748 28.0121 241.422 27.495C241.096 26.978 240.932 26.3748 240.932 25.6854V19.5455H242.931V25.5146C242.931 25.8746 243.01 26.1947 243.167 26.4748C243.327 26.7549 243.552 26.9749 243.841 27.1349C244.13 27.295 244.467 27.375 244.852 27.375C245.24 27.375 245.577 27.295 245.863 27.1349C246.152 26.9749 246.375 26.7549 246.532 26.4748C246.692 26.1947 246.772 25.8746 246.772 25.5146V19.5455ZM259.124 19.5455V29H257.397L253.284 23.0494H253.215V29H251.216V19.5455H252.97L257.051 25.4915H257.134V19.5455H259.124ZM261.215 21.1935V19.5455H268.98V21.1935H266.086V29H264.11V21.1935H261.215Z" fill="white"/>
<defs>
<filter id="filter0_d_1_2900" x="0.125" y="0" width="320" height="50" filterUnits="userSpaceOnUse" color-interpolation-filters="sRGB">
<feFlood flood-opacity="0" result="BackgroundImageFix"/>
<feColorMatrix in="SourceAlpha" type="matrix" values="0 0 0 0 0 0 0 0 0 0 0 0 0 0 0 0 0 0 127 0" result="hardAlpha"/>
<feOffset dy="2"/>
<feComposite in2="hardAlpha" operator="out"/>
<feColorMatrix type="matrix" values="0 0 0 0 0.0156863 0 0 0 0 0.172549 0 0 0 0 0.376471 0 0 0 1 0"/>
<feBlend mode="normal" in2="BackgroundImageFix" result="effect1_dropShadow_1_2900"/>
<feBlend mode="normal" in="SourceGraphic" in2="effect1_dropShadow_1_2900" result="shape"/>
</filter>
</defs>
</svg>
