<svg width="151" height="51" viewBox="0 0 151 51" fill="none" xmlns="http://www.w3.org/2000/svg">
<g filter="url(#filter0_d_1_2300)">
<rect x="0.421875" y="0.875" width="150" height="46" rx="16" fill="#58CC02"/>
</g>
<path d="M33.6318 22.4766C33.5672 22.2519 33.4764 22.0534 33.3594 21.881C33.2425 21.7056 33.0994 21.5579 32.9301 21.4379C32.7639 21.3147 32.5731 21.2209 32.3577 21.1562C32.1453 21.0916 31.9099 21.0593 31.6513 21.0593C31.1681 21.0593 30.7434 21.1793 30.3772 21.4194C30.014 21.6594 29.7309 22.0088 29.5278 22.4673C29.3246 22.9228 29.2231 23.4799 29.2231 24.1385C29.2231 24.7971 29.3231 25.3572 29.5231 25.8189C29.7232 26.2805 30.0063 26.6329 30.3726 26.8761C30.7388 27.1161 31.1712 27.2362 31.6698 27.2362C32.1222 27.2362 32.5085 27.1561 32.8285 26.9961C33.1517 26.833 33.3979 26.6037 33.5672 26.3082C33.7395 26.0128 33.8257 25.6635 33.8257 25.2603L34.2319 25.3203H31.7944V23.8153H35.7508V25.0064C35.7508 25.8374 35.5753 26.5514 35.2245 27.1484C34.8736 27.7424 34.3904 28.201 33.7749 28.5241C33.1594 28.8442 32.4546 29.0043 31.6606 29.0043C30.7742 29.0043 29.9956 28.8088 29.3246 28.418C28.6537 28.024 28.1305 27.4654 27.755 26.7422C27.3826 26.0159 27.1964 25.1541 27.1964 24.157C27.1964 23.3906 27.3072 22.7074 27.5288 22.1072C27.7535 21.504 28.0674 20.9931 28.4706 20.5746C28.8738 20.156 29.3431 19.8375 29.8786 19.619C30.4141 19.4004 30.9943 19.2912 31.619 19.2912C32.1545 19.2912 32.6531 19.3697 33.1148 19.5266C33.5764 19.6805 33.9857 19.899 34.3427 20.1822C34.7028 20.4653 34.9967 20.8023 35.2245 21.1932C35.4522 21.581 35.5984 22.0088 35.6631 22.4766H33.6318ZM38.0523 28.875V19.4205H44.423V21.0685H40.0512V23.3214H44.0952V24.9695H40.0512V27.2269H44.4415V28.875H38.0523ZM46.4522 21.0685V19.4205H54.2171V21.0685H51.3225V28.875H49.3467V21.0685H46.4522ZM65.2335 22.1396C65.1966 21.7672 65.0381 21.4779 64.758 21.2717C64.478 21.0655 64.0979 20.9624 63.6178 20.9624C63.2915 20.9624 63.0161 21.0085 62.7914 21.1009C62.5667 21.1901 62.3944 21.3147 62.2744 21.4748C62.1574 21.6348 62.0989 21.8164 62.0989 22.0195C62.0928 22.1888 62.1282 22.3365 62.2051 22.4627C62.2851 22.5889 62.3944 22.6982 62.5329 22.7905C62.6714 22.8797 62.8314 22.9582 63.013 23.0259C63.1946 23.0906 63.3885 23.146 63.5947 23.1921L64.4441 23.3952C64.8565 23.4876 65.2351 23.6107 65.5798 23.7646C65.9245 23.9184 66.223 24.1077 66.4754 24.3324C66.7277 24.5571 66.9232 24.8217 67.0617 25.1264C67.2032 25.4311 67.2755 25.7804 67.2786 26.1744C67.2755 26.753 67.1278 27.2546 66.8354 27.6793C66.5461 28.101 66.1276 28.4287 65.5798 28.6626C65.035 28.8935 64.3779 29.0089 63.6085 29.0089C62.8453 29.0089 62.1805 28.8919 61.6142 28.658C61.051 28.4241 60.6109 28.0779 60.2939 27.6193C59.98 27.1577 59.8153 26.5868 59.7999 25.9066H61.7342C61.7558 26.2236 61.8466 26.4883 62.0066 26.7006C62.1697 26.9099 62.3867 27.0684 62.6575 27.1761C62.9314 27.2808 63.2407 27.3331 63.5854 27.3331C63.924 27.3331 64.2179 27.2839 64.4672 27.1854C64.7196 27.0869 64.915 26.9499 65.0535 26.7745C65.192 26.5991 65.2612 26.3975 65.2612 26.1697C65.2612 25.9574 65.1981 25.7789 65.0719 25.6342C64.9488 25.4896 64.7673 25.3665 64.5272 25.2649C64.2902 25.1634 63.9994 25.071 63.6547 24.9879L62.6252 24.7294C61.8281 24.5355 61.1987 24.2324 60.7371 23.82C60.2754 23.4076 60.0461 22.852 60.0492 22.1534C60.0461 21.581 60.1985 21.0808 60.5063 20.6531C60.8171 20.2253 61.2434 19.8913 61.785 19.6513C62.3267 19.4112 62.9422 19.2912 63.6316 19.2912C64.3333 19.2912 64.9458 19.4112 65.469 19.6513C65.9952 19.8913 66.4046 20.2253 66.6969 20.6531C66.9893 21.0808 67.1401 21.5763 67.1494 22.1396H65.2335ZM69.0631 21.0685V19.4205H76.828V21.0685H73.9335V28.875H71.9576V21.0685H69.0631ZM79.3811 28.875H77.2391L80.5029 19.4205H83.0789L86.3381 28.875H84.1961L81.8278 21.581H81.754L79.3811 28.875ZM79.2472 25.1587H84.3069V26.7191H79.2472V25.1587ZM88.2761 28.875V19.4205H92.0062C92.7202 19.4205 93.3296 19.5482 93.8343 19.8036C94.3422 20.056 94.7284 20.4145 94.9931 20.8793C95.2608 21.3409 95.3947 21.8841 95.3947 22.5089C95.3947 23.1367 95.2593 23.6768 94.9885 24.1293C94.7176 24.5786 94.3252 24.9233 93.8113 25.1634C93.3004 25.4034 92.6818 25.5234 91.9554 25.5234H89.4579V23.9169H91.6323C92.0139 23.9169 92.3309 23.8646 92.5833 23.7599C92.8356 23.6553 93.0234 23.4983 93.1465 23.2891C93.2727 23.0798 93.3358 22.8197 93.3358 22.5089C93.3358 22.195 93.2727 21.9303 93.1465 21.7148C93.0234 21.4994 92.8341 21.3363 92.5787 21.2255C92.3263 21.1116 92.0078 21.0547 91.623 21.0547H90.275V28.875H88.2761ZM93.3819 24.5724L95.7317 28.875H93.525L91.226 24.5724H93.3819ZM97.2473 21.0685V19.4205H105.012V21.0685H102.118V28.875H100.142V21.0685H97.2473ZM107.091 28.875V19.4205H113.462V21.0685H109.09V23.3214H113.134V24.9695H109.09V27.2269H113.48V28.875H107.091ZM119.202 28.875H115.851V19.4205H119.23C120.181 19.4205 121 19.6097 121.686 19.9883C122.372 20.3638 122.9 20.9039 123.27 21.6087C123.642 22.3134 123.828 23.1567 123.828 24.1385C123.828 25.1233 123.642 25.9697 123.27 26.6776C122.9 27.3854 122.369 27.9286 121.677 28.3072C120.988 28.6857 120.163 28.875 119.202 28.875ZM117.85 27.1623H119.119C119.71 27.1623 120.207 27.0576 120.61 26.8484C121.017 26.636 121.321 26.3082 121.525 25.8651C121.731 25.4188 121.834 24.8433 121.834 24.1385C121.834 23.4399 121.731 22.869 121.525 22.4258C121.321 21.9826 121.018 21.6564 120.615 21.4471C120.212 21.2378 119.715 21.1332 119.124 21.1332H117.85V27.1623Z" fill="white"/>
<defs>
<filter id="filter0_d_1_2300" x="0.421875" y="0.875" width="150" height="50" filterUnits="userSpaceOnUse" color-interpolation-filters="sRGB">
<feFlood flood-opacity="0" result="BackgroundImageFix"/>
<feColorMatrix in="SourceAlpha" type="matrix" values="0 0 0 0 0 0 0 0 0 0 0 0 0 0 0 0 0 0 127 0" result="hardAlpha"/>
<feOffset dy="4"/>
<feComposite in2="hardAlpha" operator="out"/>
<feColorMatrix type="matrix" values="0 0 0 0 0.345098 0 0 0 0 0.654902 0 0 0 0 0 0 0 0 1 0"/>
<feBlend mode="normal" in2="BackgroundImageFix" result="effect1_dropShadow_1_2300"/>
<feBlend mode="normal" in="SourceGraphic" in2="effect1_dropShadow_1_2300" result="shape"/>
</filter>
</defs>
</svg>
