<svg width="714" height="243" viewBox="0 0 714 243" fill="none" xmlns="http://www.w3.org/2000/svg">
<g filter="url(#filter0_d_1_2896)">
<rect x="197.125" y="128" width="320" height="46" rx="16" fill="#58CC02"/>
</g>
<path d="M315.335 149.602C315.27 149.377 315.18 149.178 315.063 149.006C314.946 148.831 314.802 148.683 314.633 148.563C314.467 148.44 314.276 148.346 314.061 148.281C313.848 148.217 313.613 148.184 313.354 148.184C312.871 148.184 312.447 148.304 312.08 148.544C311.717 148.784 311.434 149.134 311.231 149.592C311.028 150.048 310.926 150.605 310.926 151.263C310.926 151.922 311.026 152.482 311.226 152.944C311.426 153.406 311.709 153.758 312.076 154.001C312.442 154.241 312.874 154.361 313.373 154.361C313.825 154.361 314.212 154.281 314.532 154.121C314.855 153.958 315.101 153.729 315.27 153.433C315.443 153.138 315.529 152.788 315.529 152.385L315.935 152.445H313.498V150.94H317.454V152.131C317.454 152.962 317.278 153.676 316.928 154.273C316.577 154.867 316.094 155.326 315.478 155.649C314.863 155.969 314.158 156.129 313.364 156.129C312.477 156.129 311.699 155.934 311.028 155.543C310.357 155.149 309.834 154.59 309.458 153.867C309.086 153.141 308.9 152.279 308.9 151.282C308.9 150.516 309.01 149.832 309.232 149.232C309.457 148.629 309.771 148.118 310.174 147.7C310.577 147.281 311.046 146.962 311.582 146.744C312.117 146.525 312.697 146.416 313.322 146.416C313.858 146.416 314.356 146.495 314.818 146.652C315.28 146.806 315.689 147.024 316.046 147.307C316.406 147.59 316.7 147.927 316.928 148.318C317.155 148.706 317.302 149.134 317.366 149.602H315.335ZM319.755 156V146.545H326.126V148.194H321.754V150.446H325.798V152.094H321.754V154.352H326.145V156H319.755ZM328.155 148.194V146.545H335.92V148.194H333.026V156H331.05V148.194H328.155ZM346.937 149.265C346.9 148.892 346.741 148.603 346.461 148.397C346.181 148.19 345.801 148.087 345.321 148.087C344.995 148.087 344.719 148.134 344.495 148.226C344.27 148.315 344.098 148.44 343.977 148.6C343.861 148.76 343.802 148.941 343.802 149.145C343.796 149.314 343.831 149.462 343.908 149.588C343.988 149.714 344.098 149.823 344.236 149.915C344.375 150.005 344.535 150.083 344.716 150.151C344.898 150.216 345.092 150.271 345.298 150.317L346.147 150.52C346.56 150.613 346.938 150.736 347.283 150.89C347.628 151.043 347.926 151.233 348.178 151.457C348.431 151.682 348.626 151.947 348.765 152.251C348.906 152.556 348.979 152.905 348.982 153.299C348.979 153.878 348.831 154.38 348.539 154.804C348.249 155.226 347.831 155.554 347.283 155.788C346.738 156.018 346.081 156.134 345.312 156.134C344.548 156.134 343.884 156.017 343.317 155.783C342.754 155.549 342.314 155.203 341.997 154.744C341.683 154.283 341.518 153.712 341.503 153.032H343.437C343.459 153.349 343.55 153.613 343.71 153.826C343.873 154.035 344.09 154.193 344.361 154.301C344.635 154.406 344.944 154.458 345.289 154.458C345.627 154.458 345.921 154.409 346.17 154.31C346.423 154.212 346.618 154.075 346.757 153.9C346.895 153.724 346.964 153.522 346.964 153.295C346.964 153.082 346.901 152.904 346.775 152.759C346.652 152.615 346.47 152.491 346.23 152.39C345.993 152.288 345.703 152.196 345.358 152.113L344.328 151.854C343.531 151.661 342.902 151.357 342.44 150.945C341.979 150.533 341.749 149.977 341.752 149.278C341.749 148.706 341.902 148.206 342.209 147.778C342.52 147.35 342.946 147.016 343.488 146.776C344.03 146.536 344.645 146.416 345.335 146.416C346.036 146.416 346.649 146.536 347.172 146.776C347.698 147.016 348.108 147.35 348.4 147.778C348.692 148.206 348.843 148.701 348.852 149.265H346.937ZM350.766 148.194V146.545H358.531V148.194H355.637V156H353.661V148.194H350.766ZM361.084 156H358.942L362.206 146.545H364.782L368.041 156H365.899L363.531 148.706H363.457L361.084 156ZM360.95 152.284H366.01V153.844H360.95V152.284ZM369.979 156V146.545H373.709C374.423 146.545 375.033 146.673 375.537 146.929C376.045 147.181 376.432 147.54 376.696 148.004C376.964 148.466 377.098 149.009 377.098 149.634C377.098 150.262 376.962 150.802 376.692 151.254C376.421 151.704 376.028 152.048 375.514 152.288C375.003 152.528 374.385 152.648 373.659 152.648H371.161V151.042H373.335C373.717 151.042 374.034 150.99 374.286 150.885C374.539 150.78 374.727 150.623 374.85 150.414C374.976 150.205 375.039 149.945 375.039 149.634C375.039 149.32 374.976 149.055 374.85 148.84C374.727 148.624 374.537 148.461 374.282 148.35C374.029 148.237 373.711 148.18 373.326 148.18H371.978V156H369.979ZM375.085 151.697L377.435 156H375.228L372.929 151.697H375.085ZM378.95 148.194V146.545H386.715V148.194H383.821V156H381.845V148.194H378.95ZM388.794 156V146.545H395.165V148.194H390.793V150.446H394.837V152.094H390.793V154.352H395.183V156H388.794ZM400.906 156H397.554V146.545H400.933C401.884 146.545 402.703 146.735 403.389 147.113C404.076 147.489 404.603 148.029 404.973 148.734C405.345 149.438 405.531 150.282 405.531 151.263C405.531 152.248 405.345 153.095 404.973 153.803C404.603 154.51 404.072 155.054 403.38 155.432C402.691 155.811 401.866 156 400.906 156ZM399.553 154.287H400.822C401.413 154.287 401.91 154.183 402.314 153.973C402.72 153.761 403.025 153.433 403.228 152.99C403.434 152.544 403.537 151.968 403.537 151.263C403.537 150.565 403.434 149.994 403.228 149.551C403.025 149.108 402.721 148.781 402.318 148.572C401.915 148.363 401.418 148.258 400.827 148.258H399.553V154.287Z" fill="white"/>
<g filter="url(#filter1_d_1_2896)">
<rect x="197.125" y="190" width="320" height="48" rx="16" fill="#235390"/>
<rect x="198.125" y="191" width="318" height="46" rx="15" stroke="#042C60" stroke-width="2"/>
</g>
<path d="M250.818 209.545V219H248.819V209.545H250.818ZM258.701 219H256.559L259.823 209.545H262.399L265.658 219H263.516L261.147 211.706H261.074L258.701 219ZM258.567 215.284H263.627V216.844H258.567V215.284ZM267.596 219V209.545H269.595V217.352H273.648V219H267.596ZM275.772 219V209.545H279.502C280.216 209.545 280.825 209.673 281.33 209.929C281.838 210.181 282.224 210.54 282.489 211.004C282.756 211.466 282.89 212.009 282.89 212.634C282.89 213.262 282.755 213.802 282.484 214.254C282.213 214.704 281.821 215.048 281.307 215.288C280.796 215.528 280.177 215.648 279.451 215.648H276.954V214.042H279.128C279.51 214.042 279.827 213.99 280.079 213.885C280.331 213.78 280.519 213.623 280.642 213.414C280.768 213.205 280.831 212.945 280.831 212.634C280.831 212.32 280.768 212.055 280.642 211.84C280.519 211.624 280.33 211.461 280.074 211.35C279.822 211.237 279.503 211.18 279.119 211.18H277.771V219H275.772ZM280.878 214.697L283.227 219H281.021L278.722 214.697H280.878ZM285.103 219V209.545H291.474V211.194H287.102V213.446H291.146V215.094H287.102V217.352H291.492V219H285.103ZM295.493 219H293.35L296.614 209.545H299.19L302.45 219H300.308L297.939 211.706H297.865L295.493 219ZM295.359 215.284H300.418V216.844H295.359V215.284ZM307.739 219H304.388V209.545H307.767C308.718 209.545 309.536 209.735 310.223 210.113C310.909 210.489 311.437 211.029 311.806 211.734C312.179 212.438 312.365 213.282 312.365 214.263C312.365 215.248 312.179 216.095 311.806 216.803C311.437 217.51 310.906 218.054 310.214 218.432C309.524 218.811 308.699 219 307.739 219ZM306.386 217.287H307.656C308.247 217.287 308.744 217.183 309.147 216.973C309.553 216.761 309.858 216.433 310.061 215.99C310.267 215.544 310.37 214.968 310.37 214.263C310.37 213.565 310.267 212.994 310.061 212.551C309.858 212.108 309.555 211.781 309.152 211.572C308.749 211.363 308.252 211.258 307.661 211.258H306.386V217.287ZM313.52 209.545H315.759L317.915 213.617H318.007L320.163 209.545H322.402L318.954 215.658V219H316.969V215.658L313.52 209.545ZM328.103 219V209.545H330.102V213.446H334.16V209.545H336.154V219H334.16V215.094H330.102V219H328.103ZM340.232 219H338.09L341.354 209.545H343.93L347.189 219H345.047L342.679 211.706H342.605L340.232 219ZM340.098 215.284H345.158V216.844H340.098V215.284ZM349.654 209.545L351.939 216.729H352.027L354.317 209.545H356.533L353.274 219H350.698L347.434 209.545H349.654ZM358.471 219V209.545H364.841V211.194H360.47V213.446H364.514V215.094H360.47V217.352H364.86V219H358.471ZM372.669 219H370.527L373.791 209.545H376.367L379.626 219H377.484L375.116 211.706H375.042L372.669 219ZM372.535 215.284H377.595V216.844H372.535V215.284ZM389.472 209.545V219H387.746L383.632 213.049H383.563V219H381.564V209.545H383.318L387.399 215.491H387.482V209.545H389.472ZM397.362 219H395.22L398.484 209.545H401.06L404.319 219H402.177L399.809 211.706H399.735L397.362 219ZM397.228 215.284H402.288V216.844H397.228V215.284ZM414.155 212.855H412.133C412.096 212.594 412.02 212.362 411.906 212.158C411.793 211.952 411.646 211.777 411.468 211.632C411.289 211.487 411.083 211.377 410.849 211.3C410.618 211.223 410.368 211.184 410.097 211.184C409.607 211.184 409.181 211.306 408.818 211.549C408.455 211.789 408.173 212.14 407.973 212.602C407.773 213.06 407.673 213.617 407.673 214.273C407.673 214.947 407.773 215.513 407.973 215.972C408.176 216.43 408.46 216.776 408.823 217.01C409.186 217.244 409.606 217.361 410.083 217.361C410.351 217.361 410.598 217.326 410.826 217.255C411.057 217.184 411.262 217.081 411.44 216.946C411.619 216.807 411.766 216.639 411.883 216.442C412.003 216.246 412.087 216.021 412.133 215.768L414.155 215.778C414.102 216.212 413.972 216.63 413.762 217.033C413.556 217.433 413.278 217.792 412.927 218.109C412.579 218.423 412.163 218.672 411.68 218.857C411.2 219.038 410.657 219.129 410.051 219.129C409.207 219.129 408.453 218.938 407.789 218.557C407.127 218.175 406.604 217.623 406.219 216.9C405.837 216.176 405.647 215.301 405.647 214.273C405.647 213.242 405.84 212.365 406.228 211.641C406.616 210.918 407.142 210.367 407.807 209.989C408.472 209.607 409.22 209.416 410.051 209.416C410.598 209.416 411.106 209.493 411.574 209.647C412.045 209.801 412.462 210.026 412.825 210.321C413.188 210.613 413.484 210.972 413.712 211.397C413.942 211.821 414.09 212.308 414.155 212.855ZM424.73 212.855H422.708C422.671 212.594 422.596 212.362 422.482 212.158C422.368 211.952 422.222 211.777 422.043 211.632C421.865 211.487 421.659 211.377 421.425 211.3C421.194 211.223 420.943 211.184 420.672 211.184C420.183 211.184 419.757 211.306 419.393 211.549C419.03 211.789 418.749 212.14 418.549 212.602C418.349 213.06 418.249 213.617 418.249 214.273C418.249 214.947 418.349 215.513 418.549 215.972C418.752 216.43 419.035 216.776 419.398 217.01C419.761 217.244 420.181 217.361 420.658 217.361C420.926 217.361 421.174 217.326 421.402 217.255C421.632 217.184 421.837 217.081 422.016 216.946C422.194 216.807 422.342 216.639 422.459 216.442C422.579 216.246 422.662 216.021 422.708 215.768L424.73 215.778C424.678 216.212 424.547 216.63 424.338 217.033C424.131 217.433 423.853 217.792 423.502 218.109C423.154 218.423 422.739 218.672 422.256 218.857C421.776 219.038 421.232 219.129 420.626 219.129C419.783 219.129 419.029 218.938 418.364 218.557C417.702 218.175 417.179 217.623 416.794 216.9C416.413 216.176 416.222 215.301 416.222 214.273C416.222 213.242 416.416 212.365 416.804 211.641C417.191 210.918 417.718 210.367 418.382 209.989C419.047 209.607 419.795 209.416 420.626 209.416C421.174 209.416 421.682 209.493 422.149 209.647C422.62 209.801 423.037 210.026 423.401 210.321C423.764 210.613 424.059 210.972 424.287 211.397C424.518 211.821 424.665 212.308 424.73 212.855ZM435.652 214.273C435.652 215.304 435.456 216.181 435.065 216.904C434.678 217.627 434.148 218.18 433.477 218.561C432.81 218.94 432.059 219.129 431.225 219.129C430.384 219.129 429.63 218.938 428.962 218.557C428.295 218.175 427.767 217.623 427.379 216.9C426.991 216.176 426.797 215.301 426.797 214.273C426.797 213.242 426.991 212.365 427.379 211.641C427.767 210.918 428.295 210.367 428.962 209.989C429.63 209.607 430.384 209.416 431.225 209.416C432.059 209.416 432.81 209.607 433.477 209.989C434.148 210.367 434.678 210.918 435.065 211.641C435.456 212.365 435.652 213.242 435.652 214.273ZM433.625 214.273C433.625 213.605 433.525 213.042 433.325 212.583C433.128 212.125 432.85 211.777 432.489 211.54C432.129 211.303 431.708 211.184 431.225 211.184C430.741 211.184 430.32 211.303 429.96 211.54C429.6 211.777 429.319 212.125 429.119 212.583C428.922 213.042 428.824 213.605 428.824 214.273C428.824 214.941 428.922 215.504 429.119 215.962C429.319 216.421 429.6 216.769 429.96 217.006C430.32 217.243 430.741 217.361 431.225 217.361C431.708 217.361 432.129 217.243 432.489 217.006C432.85 216.769 433.128 216.421 433.325 215.962C433.525 215.504 433.625 214.941 433.625 214.273ZM443.772 209.545H445.771V215.685C445.771 216.375 445.607 216.978 445.277 217.495C444.951 218.012 444.494 218.415 443.906 218.705C443.318 218.991 442.634 219.134 441.852 219.134C441.067 219.134 440.381 218.991 439.793 218.705C439.205 218.415 438.748 218.012 438.422 217.495C438.096 216.978 437.932 216.375 437.932 215.685V209.545H439.931V215.515C439.931 215.875 440.01 216.195 440.167 216.475C440.327 216.755 440.552 216.975 440.841 217.135C441.13 217.295 441.467 217.375 441.852 217.375C442.24 217.375 442.577 217.295 442.863 217.135C443.152 216.975 443.375 216.755 443.532 216.475C443.692 216.195 443.772 215.875 443.772 215.515V209.545ZM456.124 209.545V219H454.397L450.284 213.049H450.215V219H448.216V209.545H449.97L454.051 215.491H454.134V209.545H456.124ZM458.215 211.194V209.545H465.98V211.194H463.086V219H461.11V211.194H458.215Z" fill="white"/>
<path d="M92.7207 13.2841V9.22727H111.834V13.2841H104.709V32.5H99.8457V13.2841H92.7207ZM119.732 22.4091V32.5H114.891V9.22727H119.596V18.125H119.8C120.194 17.0947 120.831 16.2879 121.709 15.7045C122.588 15.1136 123.69 14.8182 125.016 14.8182C126.228 14.8182 127.285 15.0833 128.187 15.6136C129.096 16.1364 129.8 16.8902 130.3 17.875C130.808 18.8523 131.058 20.0227 131.05 21.3864V32.5H126.209V22.25C126.217 21.1742 125.944 20.3371 125.391 19.7386C124.846 19.1402 124.081 18.8409 123.096 18.8409C122.437 18.8409 121.853 18.9811 121.346 19.2614C120.846 19.5417 120.452 19.9508 120.164 20.4886C119.884 21.0189 119.74 21.6591 119.732 22.4091ZM142.814 32.8409C141.019 32.8409 139.474 32.4773 138.178 31.75C136.89 31.0152 135.898 29.9773 135.201 28.6364C134.504 27.2879 134.155 25.6932 134.155 23.8523C134.155 22.0568 134.504 20.4811 135.201 19.125C135.898 17.7689 136.879 16.7121 138.144 15.9545C139.417 15.197 140.909 14.8182 142.621 14.8182C143.773 14.8182 144.845 15.0038 145.837 15.375C146.837 15.7386 147.708 16.2879 148.451 17.0227C149.201 17.7576 149.784 18.6818 150.201 19.7955C150.618 20.9015 150.826 22.197 150.826 23.6818V25.0114H136.087V22.0114H146.269C146.269 21.3144 146.118 20.697 145.814 20.1591C145.511 19.6212 145.091 19.2008 144.553 18.8977C144.023 18.5871 143.405 18.4318 142.701 18.4318C141.966 18.4318 141.314 18.6023 140.746 18.9432C140.186 19.2765 139.746 19.7273 139.428 20.2955C139.11 20.8561 138.947 21.4811 138.939 22.1705V25.0227C138.939 25.8864 139.099 26.6326 139.417 27.2614C139.743 27.8902 140.201 28.375 140.792 28.7159C141.383 29.0568 142.083 29.2273 142.894 29.2273C143.432 29.2273 143.924 29.1515 144.371 29C144.818 28.8485 145.201 28.6212 145.519 28.3182C145.837 28.0152 146.08 27.6439 146.246 27.2045L150.724 27.5C150.496 28.5758 150.03 29.5152 149.326 30.3182C148.629 31.1136 147.727 31.7348 146.621 32.1818C145.523 32.6212 144.254 32.8409 142.814 32.8409ZM170.778 15.0455V18.6818H160.005V15.0455H170.778ZM162.471 32.5V13.7841C162.471 12.5189 162.717 11.4697 163.209 10.6364C163.709 9.80303 164.391 9.17803 165.255 8.76136C166.118 8.3447 167.1 8.13636 168.198 8.13636C168.94 8.13636 169.618 8.19318 170.232 8.30682C170.853 8.42045 171.315 8.52273 171.618 8.61364L170.755 12.25C170.565 12.1894 170.331 12.1326 170.05 12.0795C169.778 12.0265 169.497 12 169.209 12C168.497 12 168.001 12.1667 167.721 12.5C167.44 12.8258 167.3 13.2841 167.3 13.875V32.5H162.471ZM173.735 32.5V15.0455H178.428V18.0909H178.61C178.928 17.0076 179.462 16.1894 180.212 15.6364C180.962 15.0758 181.826 14.7955 182.803 14.7955C183.046 14.7955 183.307 14.8106 183.587 14.8409C183.868 14.8712 184.114 14.9129 184.326 14.9659V19.2614C184.099 19.1932 183.784 19.1326 183.383 19.0795C182.981 19.0265 182.614 19 182.28 19C181.568 19 180.932 19.1553 180.371 19.4659C179.818 19.7689 179.379 20.1932 179.053 20.7386C178.735 21.2841 178.576 21.9129 178.576 22.625V32.5H173.735ZM193.971 32.8409C192.175 32.8409 190.63 32.4773 189.334 31.75C188.047 31.0152 187.054 29.9773 186.357 28.6364C185.66 27.2879 185.312 25.6932 185.312 23.8523C185.312 22.0568 185.66 20.4811 186.357 19.125C187.054 17.7689 188.035 16.7121 189.3 15.9545C190.573 15.197 192.065 14.8182 193.778 14.8182C194.929 14.8182 196.001 15.0038 196.993 15.375C197.993 15.7386 198.865 16.2879 199.607 17.0227C200.357 17.7576 200.94 18.6818 201.357 19.7955C201.774 20.9015 201.982 22.197 201.982 23.6818V25.0114H187.243V22.0114H197.425C197.425 21.3144 197.274 20.697 196.971 20.1591C196.668 19.6212 196.247 19.2008 195.709 18.8977C195.179 18.5871 194.562 18.4318 193.857 18.4318C193.122 18.4318 192.471 18.6023 191.903 18.9432C191.342 19.2765 190.903 19.7273 190.584 20.2955C190.266 20.8561 190.103 21.4811 190.096 22.1705V25.0227C190.096 25.8864 190.255 26.6326 190.573 27.2614C190.899 27.8902 191.357 28.375 191.948 28.7159C192.539 29.0568 193.24 29.2273 194.05 29.2273C194.588 29.2273 195.081 29.1515 195.528 29C195.975 28.8485 196.357 28.6212 196.675 28.3182C196.993 28.0152 197.236 27.6439 197.403 27.2045L201.88 27.5C201.653 28.5758 201.187 29.5152 200.482 30.3182C199.785 31.1136 198.884 31.7348 197.778 32.1818C196.679 32.6212 195.41 32.8409 193.971 32.8409ZM213.096 32.8409C211.3 32.8409 209.755 32.4773 208.459 31.75C207.172 31.0152 206.179 29.9773 205.482 28.6364C204.785 27.2879 204.437 25.6932 204.437 23.8523C204.437 22.0568 204.785 20.4811 205.482 19.125C206.179 17.7689 207.16 16.7121 208.425 15.9545C209.698 15.197 211.19 14.8182 212.903 14.8182C214.054 14.8182 215.126 15.0038 216.118 15.375C217.118 15.7386 217.99 16.2879 218.732 17.0227C219.482 17.7576 220.065 18.6818 220.482 19.7955C220.899 20.9015 221.107 22.197 221.107 23.6818V25.0114H206.368V22.0114H216.55C216.55 21.3144 216.399 20.697 216.096 20.1591C215.793 19.6212 215.372 19.2008 214.834 18.8977C214.304 18.5871 213.687 18.4318 212.982 18.4318C212.247 18.4318 211.596 18.6023 211.028 18.9432C210.467 19.2765 210.028 19.7273 209.709 20.2955C209.391 20.8561 209.228 21.4811 209.221 22.1705V25.0227C209.221 25.8864 209.38 26.6326 209.698 27.2614C210.024 27.8902 210.482 28.375 211.073 28.7159C211.664 29.0568 212.365 29.2273 213.175 29.2273C213.713 29.2273 214.206 29.1515 214.653 29C215.1 28.8485 215.482 28.6212 215.8 28.3182C216.118 28.0152 216.361 27.6439 216.528 27.2045L221.005 27.5C220.778 28.5758 220.312 29.5152 219.607 30.3182C218.91 31.1136 218.009 31.7348 216.903 32.1818C215.804 32.6212 214.535 32.8409 213.096 32.8409ZM229.528 29.3182L229.403 30.5682C229.304 31.5682 229.115 32.5644 228.834 33.5568C228.562 34.5568 228.274 35.4621 227.971 36.2727C227.675 37.0833 227.437 37.7197 227.255 38.1818H224.118C224.232 37.7348 224.387 37.1098 224.584 36.3068C224.781 35.5114 224.967 34.6174 225.141 33.625C225.315 32.6326 225.425 31.6212 225.471 30.5909L225.528 29.3182H229.528ZM249.653 15.0455V18.6818H238.88V15.0455H249.653ZM241.346 32.5V13.7841C241.346 12.5189 241.592 11.4697 242.084 10.6364C242.584 9.80303 243.266 9.17803 244.13 8.76136C244.993 8.3447 245.975 8.13636 247.073 8.13636C247.815 8.13636 248.493 8.19318 249.107 8.30682C249.728 8.42045 250.19 8.52273 250.493 8.61364L249.63 12.25C249.44 12.1894 249.206 12.1326 248.925 12.0795C248.653 12.0265 248.372 12 248.084 12C247.372 12 246.876 12.1667 246.596 12.5C246.315 12.8258 246.175 13.2841 246.175 13.875V32.5H241.346ZM263.803 25.0682V15.0455H268.644V32.5H263.996V29.3295H263.814C263.421 30.3523 262.765 31.1742 261.849 31.7955C260.939 32.4167 259.83 32.7273 258.519 32.7273C257.352 32.7273 256.326 32.4621 255.439 31.9318C254.553 31.4015 253.86 30.6477 253.36 29.6705C252.868 28.6932 252.618 27.5227 252.61 26.1591V15.0455H257.451V25.2955C257.458 26.3258 257.735 27.1402 258.28 27.7386C258.826 28.3371 259.557 28.6364 260.474 28.6364C261.057 28.6364 261.602 28.5038 262.11 28.2386C262.618 27.9659 263.027 27.5644 263.337 27.0341C263.655 26.5038 263.811 25.8485 263.803 25.0682ZM277.357 22.4091V32.5H272.516V15.0455H277.13V18.125H277.334C277.721 17.1098 278.368 16.3068 279.278 15.7159C280.187 15.1174 281.289 14.8182 282.584 14.8182C283.797 14.8182 284.853 15.0833 285.755 15.6136C286.656 16.1439 287.357 16.9015 287.857 17.8864C288.357 18.8636 288.607 20.0303 288.607 21.3864V32.5H283.766V22.25C283.774 21.1818 283.501 20.3485 282.948 19.75C282.395 19.1439 281.634 18.8409 280.664 18.8409C280.012 18.8409 279.437 18.9811 278.937 19.2614C278.444 19.5417 278.058 19.9508 277.778 20.4886C277.505 21.0189 277.365 21.6591 277.357 22.4091ZM297.684 29.3182L297.559 30.5682C297.46 31.5682 297.271 32.5644 296.991 33.5568C296.718 34.5568 296.43 35.4621 296.127 36.2727C295.832 37.0833 295.593 37.7197 295.411 38.1818H292.275C292.388 37.7348 292.544 37.1098 292.741 36.3068C292.938 35.5114 293.123 34.6174 293.297 33.625C293.472 32.6326 293.582 31.6212 293.627 30.5909L293.684 29.3182H297.684ZM313.4 32.8295C312.286 32.8295 311.294 32.6364 310.422 32.25C309.551 31.8561 308.862 31.2765 308.354 30.5114C307.854 29.7386 307.604 28.7765 307.604 27.625C307.604 26.6553 307.782 25.8409 308.138 25.1818C308.494 24.5227 308.979 23.9924 309.593 23.5909C310.207 23.1894 310.904 22.8864 311.684 22.6818C312.472 22.4773 313.297 22.3333 314.161 22.25C315.176 22.1439 315.994 22.0455 316.616 21.9545C317.237 21.8561 317.688 21.7121 317.968 21.5227C318.248 21.3333 318.388 21.053 318.388 20.6818V20.6136C318.388 19.8939 318.161 19.3371 317.707 18.9432C317.26 18.5492 316.623 18.3523 315.797 18.3523C314.926 18.3523 314.233 18.5455 313.718 18.9318C313.203 19.3106 312.862 19.7879 312.695 20.3636L308.218 20C308.445 18.9394 308.892 18.0227 309.559 17.25C310.225 16.4697 311.085 15.8712 312.138 15.4545C313.199 15.0303 314.426 14.8182 315.82 14.8182C316.79 14.8182 317.718 14.9318 318.604 15.1591C319.498 15.3864 320.29 15.7386 320.979 16.2159C321.676 16.6932 322.225 17.3068 322.627 18.0568C323.029 18.7992 323.229 19.6894 323.229 20.7273V32.5H318.638V30.0795H318.502C318.222 30.625 317.847 31.1061 317.377 31.5227C316.907 31.9318 316.343 32.2538 315.684 32.4886C315.025 32.7159 314.263 32.8295 313.4 32.8295ZM314.786 29.4886C315.498 29.4886 316.127 29.3485 316.672 29.0682C317.218 28.7803 317.646 28.3939 317.957 27.9091C318.267 27.4242 318.422 26.875 318.422 26.2614V24.4091C318.271 24.5076 318.063 24.5985 317.797 24.6818C317.54 24.7576 317.248 24.8295 316.922 24.8977C316.597 24.9583 316.271 25.0152 315.945 25.0682C315.619 25.1136 315.324 25.1553 315.059 25.1932C314.491 25.2765 313.994 25.4091 313.57 25.5909C313.146 25.7727 312.816 26.0189 312.582 26.3295C312.347 26.6326 312.229 27.0114 312.229 27.4659C312.229 28.125 312.468 28.6288 312.945 28.9773C313.43 29.3182 314.044 29.4886 314.786 29.4886ZM331.826 22.4091V32.5H326.985V15.0455H331.599V18.125H331.803C332.189 17.1098 332.837 16.3068 333.746 15.7159C334.655 15.1174 335.758 14.8182 337.053 14.8182C338.265 14.8182 339.322 15.0833 340.224 15.6136C341.125 16.1439 341.826 16.9015 342.326 17.8864C342.826 18.8636 343.076 20.0303 343.076 21.3864V32.5H338.235V22.25C338.243 21.1818 337.97 20.3485 337.417 19.75C336.864 19.1439 336.102 18.8409 335.133 18.8409C334.481 18.8409 333.905 18.9811 333.405 19.2614C332.913 19.5417 332.527 19.9508 332.246 20.4886C331.974 21.0189 331.833 21.6591 331.826 22.4091ZM353.323 32.7841C351.997 32.7841 350.797 32.4432 349.721 31.7614C348.653 31.072 347.804 30.0606 347.175 28.7273C346.554 27.3864 346.243 25.7424 346.243 23.7955C346.243 21.7955 346.565 20.1326 347.209 18.8068C347.853 17.4735 348.709 16.4773 349.778 15.8182C350.853 15.1515 352.031 14.8182 353.312 14.8182C354.289 14.8182 355.103 14.9848 355.755 15.3182C356.414 15.6439 356.944 16.053 357.346 16.5455C357.755 17.0303 358.065 17.5076 358.278 17.9773H358.425V9.22727H363.255V32.5H358.482V29.7045H358.278C358.05 30.1894 357.728 30.6705 357.312 31.1477C356.903 31.6174 356.368 32.0076 355.709 32.3182C355.058 32.6288 354.262 32.7841 353.323 32.7841ZM354.857 28.9318C355.637 28.9318 356.297 28.7197 356.834 28.2955C357.38 27.8636 357.797 27.2614 358.084 26.4886C358.38 25.7159 358.528 24.8106 358.528 23.7727C358.528 22.7348 358.384 21.8333 358.096 21.0682C357.808 20.303 357.391 19.7121 356.846 19.2955C356.3 18.8788 355.637 18.6705 354.857 18.6705C354.062 18.6705 353.391 18.8864 352.846 19.3182C352.3 19.75 351.887 20.3485 351.607 21.1136C351.327 21.8788 351.187 22.7652 351.187 23.7727C351.187 24.7879 351.327 25.6856 351.607 26.4659C351.895 27.2386 352.308 27.8447 352.846 28.2841C353.391 28.7159 354.062 28.9318 354.857 28.9318ZM382.596 32.8409C380.8 32.8409 379.255 32.4773 377.959 31.75C376.672 31.0152 375.679 29.9773 374.982 28.6364C374.285 27.2879 373.937 25.6932 373.937 23.8523C373.937 22.0568 374.285 20.4811 374.982 19.125C375.679 17.7689 376.66 16.7121 377.925 15.9545C379.198 15.197 380.69 14.8182 382.403 14.8182C383.554 14.8182 384.626 15.0038 385.618 15.375C386.618 15.7386 387.49 16.2879 388.232 17.0227C388.982 17.7576 389.565 18.6818 389.982 19.7955C390.399 20.9015 390.607 22.197 390.607 23.6818V25.0114H375.868V22.0114H386.05C386.05 21.3144 385.899 20.697 385.596 20.1591C385.293 19.6212 384.872 19.2008 384.334 18.8977C383.804 18.5871 383.187 18.4318 382.482 18.4318C381.747 18.4318 381.096 18.6023 380.528 18.9432C379.967 19.2765 379.528 19.7273 379.209 20.2955C378.891 20.8561 378.728 21.4811 378.721 22.1705V25.0227C378.721 25.8864 378.88 26.6326 379.198 27.2614C379.524 27.8902 379.982 28.375 380.573 28.7159C381.164 29.0568 381.865 29.2273 382.675 29.2273C383.213 29.2273 383.706 29.1515 384.153 29C384.6 28.8485 384.982 28.6212 385.3 28.3182C385.618 28.0152 385.861 27.6439 386.028 27.2045L390.505 27.5C390.278 28.5758 389.812 29.5152 389.107 30.3182C388.41 31.1136 387.509 31.7348 386.403 32.1818C385.304 32.6212 384.035 32.8409 382.596 32.8409ZM403.153 15.0455V18.6818H392.38V15.0455H403.153ZM394.846 32.5V13.7841C394.846 12.5189 395.092 11.4697 395.584 10.6364C396.084 9.80303 396.766 9.17803 397.63 8.76136C398.493 8.3447 399.475 8.13636 400.573 8.13636C401.315 8.13636 401.993 8.19318 402.607 8.30682C403.228 8.42045 403.69 8.52273 403.993 8.61364L403.13 12.25C402.94 12.1894 402.706 12.1326 402.425 12.0795C402.153 12.0265 401.872 12 401.584 12C400.872 12 400.376 12.1667 400.096 12.5C399.815 12.8258 399.675 13.2841 399.675 13.875V32.5H394.846ZM415.496 15.0455V18.6818H404.724V15.0455H415.496ZM407.189 32.5V13.7841C407.189 12.5189 407.436 11.4697 407.928 10.6364C408.428 9.80303 409.11 9.17803 409.974 8.76136C410.837 8.3447 411.818 8.13636 412.917 8.13636C413.659 8.13636 414.337 8.19318 414.951 8.30682C415.572 8.42045 416.034 8.52273 416.337 8.61364L415.474 12.25C415.284 12.1894 415.049 12.1326 414.769 12.0795C414.496 12.0265 414.216 12 413.928 12C413.216 12 412.72 12.1667 412.439 12.5C412.159 12.8258 412.019 13.2841 412.019 13.875V32.5H407.189ZM425.783 32.8409C423.988 32.8409 422.442 32.4773 421.147 31.75C419.859 31.0152 418.867 29.9773 418.17 28.6364C417.473 27.2879 417.124 25.6932 417.124 23.8523C417.124 22.0568 417.473 20.4811 418.17 19.125C418.867 17.7689 419.848 16.7121 421.113 15.9545C422.386 15.197 423.878 14.8182 425.59 14.8182C426.742 14.8182 427.814 15.0038 428.806 15.375C429.806 15.7386 430.677 16.2879 431.42 17.0227C432.17 17.7576 432.753 18.6818 433.17 19.7955C433.586 20.9015 433.795 22.197 433.795 23.6818V25.0114H419.056V22.0114H429.238C429.238 21.3144 429.086 20.697 428.783 20.1591C428.48 19.6212 428.06 19.2008 427.522 18.8977C426.992 18.5871 426.374 18.4318 425.67 18.4318C424.935 18.4318 424.283 18.6023 423.715 18.9432C423.154 19.2765 422.715 19.7273 422.397 20.2955C422.079 20.8561 421.916 21.4811 421.908 22.1705V25.0227C421.908 25.8864 422.067 26.6326 422.386 27.2614C422.711 27.8902 423.17 28.375 423.761 28.7159C424.351 29.0568 425.052 29.2273 425.863 29.2273C426.401 29.2273 426.893 29.1515 427.34 29C427.787 28.8485 428.17 28.6212 428.488 28.3182C428.806 28.0152 429.048 27.6439 429.215 27.2045L433.692 27.5C433.465 28.5758 432.999 29.5152 432.295 30.3182C431.598 31.1136 430.696 31.7348 429.59 32.1818C428.492 32.6212 427.223 32.8409 425.783 32.8409ZM444.84 32.8409C443.052 32.8409 441.514 32.4621 440.226 31.7045C438.946 30.9394 437.961 29.8788 437.272 28.5227C436.59 27.1667 436.249 25.6061 436.249 23.8409C436.249 22.053 436.594 20.4848 437.283 19.1364C437.98 17.7803 438.969 16.7235 440.249 15.9659C441.529 15.2008 443.052 14.8182 444.817 14.8182C446.34 14.8182 447.673 15.0947 448.817 15.6477C449.961 16.2008 450.867 16.9773 451.533 17.9773C452.2 18.9773 452.567 20.1515 452.636 21.5H448.067C447.939 20.6288 447.598 19.928 447.045 19.3977C446.499 18.8598 445.783 18.5909 444.897 18.5909C444.147 18.5909 443.492 18.7955 442.931 19.2045C442.378 19.6061 441.946 20.1932 441.636 20.9659C441.325 21.7386 441.17 22.6742 441.17 23.7727C441.17 24.8864 441.321 25.8333 441.624 26.6136C441.935 27.3939 442.37 27.9886 442.931 28.3977C443.492 28.8068 444.147 29.0114 444.897 29.0114C445.45 29.0114 445.946 28.8977 446.386 28.6705C446.832 28.4432 447.2 28.1136 447.488 27.6818C447.783 27.2424 447.976 26.7159 448.067 26.1023H452.636C452.56 27.4356 452.196 28.6098 451.545 29.625C450.901 30.6326 450.011 31.4205 448.874 31.9886C447.738 32.5568 446.393 32.8409 444.84 32.8409ZM465.019 15.0455V18.6818H454.508V15.0455H465.019ZM456.894 10.8636H461.735V27.1364C461.735 27.5833 461.803 27.9318 461.939 28.1818C462.076 28.4242 462.265 28.5947 462.508 28.6932C462.758 28.7917 463.046 28.8409 463.371 28.8409C463.599 28.8409 463.826 28.822 464.053 28.7841C464.28 28.7386 464.455 28.7045 464.576 28.6818L465.337 32.2841C465.095 32.3598 464.754 32.447 464.314 32.5455C463.875 32.6515 463.341 32.7159 462.712 32.7386C461.546 32.7841 460.523 32.6288 459.644 32.2727C458.773 31.9167 458.095 31.3636 457.61 30.6136C457.125 29.8636 456.886 28.9167 456.894 27.7727V10.8636ZM468.172 32.5V15.0455H473.013V32.5H468.172ZM470.604 12.7955C469.885 12.7955 469.267 12.5568 468.752 12.0795C468.244 11.5947 467.991 11.0152 467.991 10.3409C467.991 9.67424 468.244 9.10227 468.752 8.625C469.267 8.14015 469.885 7.89773 470.604 7.89773C471.324 7.89773 471.938 8.14015 472.445 8.625C472.96 9.10227 473.218 9.67424 473.218 10.3409C473.218 11.0152 472.96 11.5947 472.445 12.0795C471.938 12.5568 471.324 12.7955 470.604 12.7955ZM493.164 15.0455L487.062 32.5H481.607L475.505 15.0455H480.618L484.243 27.5341H484.425L488.039 15.0455H493.164ZM503.033 32.8409C501.238 32.8409 499.692 32.4773 498.397 31.75C497.109 31.0152 496.117 29.9773 495.42 28.6364C494.723 27.2879 494.374 25.6932 494.374 23.8523C494.374 22.0568 494.723 20.4811 495.42 19.125C496.117 17.7689 497.098 16.7121 498.363 15.9545C499.636 15.197 501.128 14.8182 502.84 14.8182C503.992 14.8182 505.064 15.0038 506.056 15.375C507.056 15.7386 507.927 16.2879 508.67 17.0227C509.42 17.7576 510.003 18.6818 510.42 19.7955C510.836 20.9015 511.045 22.197 511.045 23.6818V25.0114H496.306V22.0114H506.488C506.488 21.3144 506.336 20.697 506.033 20.1591C505.73 19.6212 505.31 19.2008 504.772 18.8977C504.242 18.5871 503.624 18.4318 502.92 18.4318C502.185 18.4318 501.533 18.6023 500.965 18.9432C500.404 19.2765 499.965 19.7273 499.647 20.2955C499.329 20.8561 499.166 21.4811 499.158 22.1705V25.0227C499.158 25.8864 499.317 26.6326 499.636 27.2614C499.961 27.8902 500.42 28.375 501.011 28.7159C501.601 29.0568 502.302 29.2273 503.113 29.2273C503.651 29.2273 504.143 29.1515 504.59 29C505.037 28.8485 505.42 28.6212 505.738 28.3182C506.056 28.0152 506.298 27.6439 506.465 27.2045L510.942 27.5C510.715 28.5758 510.249 29.5152 509.545 30.3182C508.848 31.1136 507.946 31.7348 506.84 32.1818C505.742 32.6212 504.473 32.8409 503.033 32.8409ZM525.053 32.5L520.303 15.0455H525.201L527.905 26.7727H528.064L530.883 15.0455H535.689L538.553 26.7045H538.701L541.36 15.0455H546.246L541.508 32.5H536.383L533.383 21.5227H533.167L530.167 32.5H525.053ZM553.806 32.8295C552.692 32.8295 551.7 32.6364 550.829 32.25C549.957 31.8561 549.268 31.2765 548.761 30.5114C548.261 29.7386 548.011 28.7765 548.011 27.625C548.011 26.6553 548.189 25.8409 548.545 25.1818C548.901 24.5227 549.386 23.9924 549.999 23.5909C550.613 23.1894 551.31 22.8864 552.09 22.6818C552.878 22.4773 553.704 22.3333 554.567 22.25C555.582 22.1439 556.401 22.0455 557.022 21.9545C557.643 21.8561 558.094 21.7121 558.374 21.5227C558.654 21.3333 558.795 21.053 558.795 20.6818V20.6136C558.795 19.8939 558.567 19.3371 558.113 18.9432C557.666 18.5492 557.029 18.3523 556.204 18.3523C555.332 18.3523 554.639 18.5455 554.124 18.9318C553.609 19.3106 553.268 19.7879 553.101 20.3636L548.624 20C548.851 18.9394 549.298 18.0227 549.965 17.25C550.632 16.4697 551.492 15.8712 552.545 15.4545C553.605 15.0303 554.832 14.8182 556.226 14.8182C557.196 14.8182 558.124 14.9318 559.011 15.1591C559.904 15.3864 560.696 15.7386 561.386 16.2159C562.082 16.6932 562.632 17.3068 563.033 18.0568C563.435 18.7992 563.636 19.6894 563.636 20.7273V32.5H559.045V30.0795H558.908C558.628 30.625 558.253 31.1061 557.783 31.5227C557.314 31.9318 556.749 32.2538 556.09 32.4886C555.431 32.7159 554.67 32.8295 553.806 32.8295ZM555.192 29.4886C555.904 29.4886 556.533 29.3485 557.079 29.0682C557.624 28.7803 558.052 28.3939 558.363 27.9091C558.673 27.4242 558.829 26.875 558.829 26.2614V24.4091C558.677 24.5076 558.469 24.5985 558.204 24.6818C557.946 24.7576 557.654 24.8295 557.329 24.8977C557.003 24.9583 556.677 25.0152 556.351 25.0682C556.026 25.1136 555.73 25.1553 555.465 25.1932C554.897 25.2765 554.401 25.4091 553.976 25.5909C553.552 25.7727 553.223 26.0189 552.988 26.3295C552.753 26.6326 552.636 27.0114 552.636 27.4659C552.636 28.125 552.874 28.6288 553.351 28.9773C553.836 29.3182 554.45 29.4886 555.192 29.4886ZM569.755 39.0455C569.141 39.0455 568.565 38.9962 568.028 38.8977C567.497 38.8068 567.058 38.6894 566.709 38.5455L567.8 34.9318C568.368 35.1061 568.88 35.2008 569.334 35.2159C569.797 35.2311 570.194 35.125 570.528 34.8977C570.868 34.6705 571.145 34.2841 571.357 33.7386L571.641 33L565.38 15.0455H570.471L574.084 27.8636H574.266L577.914 15.0455H583.039L576.255 34.3864C575.929 35.3258 575.486 36.1439 574.925 36.8409C574.372 37.5455 573.672 38.0871 572.823 38.4659C571.975 38.8523 570.952 39.0455 569.755 39.0455ZM602.207 15.0455V18.6818H591.695V15.0455H602.207ZM594.082 10.8636H598.922V27.1364C598.922 27.5833 598.991 27.9318 599.127 28.1818C599.263 28.4242 599.453 28.5947 599.695 28.6932C599.945 28.7917 600.233 28.8409 600.559 28.8409C600.786 28.8409 601.013 28.822 601.241 28.7841C601.468 28.7386 601.642 28.7045 601.763 28.6818L602.525 32.2841C602.282 32.3598 601.941 32.447 601.502 32.5455C601.063 32.6515 600.528 32.7159 599.9 32.7386C598.733 32.7841 597.71 32.6288 596.832 32.2727C595.96 31.9167 595.282 31.3636 594.797 30.6136C594.313 29.8636 594.074 28.9167 594.082 27.7727V10.8636ZM613.059 32.8409C611.294 32.8409 609.767 32.4659 608.479 31.7159C607.199 30.9583 606.21 29.9053 605.513 28.5568C604.816 27.2008 604.468 25.6288 604.468 23.8409C604.468 22.0379 604.816 20.4621 605.513 19.1136C606.21 17.7576 607.199 16.7045 608.479 15.9545C609.767 15.197 611.294 14.8182 613.059 14.8182C614.824 14.8182 616.347 15.197 617.627 15.9545C618.915 16.7045 619.907 17.7576 620.604 19.1136C621.301 20.4621 621.65 22.0379 621.65 23.8409C621.65 25.6288 621.301 27.2008 620.604 28.5568C619.907 29.9053 618.915 30.9583 617.627 31.7159C616.347 32.4659 614.824 32.8409 613.059 32.8409ZM613.082 29.0909C613.885 29.0909 614.555 28.8636 615.093 28.4091C615.631 27.947 616.036 27.3182 616.309 26.5227C616.589 25.7273 616.729 24.822 616.729 23.8068C616.729 22.7917 616.589 21.8864 616.309 21.0909C616.036 20.2955 615.631 19.6667 615.093 19.2045C614.555 18.7424 613.885 18.5114 613.082 18.5114C612.271 18.5114 611.589 18.7424 611.036 19.2045C610.491 19.6667 610.078 20.2955 609.797 21.0909C609.525 21.8864 609.388 22.7917 609.388 23.8068C609.388 24.822 609.525 25.7273 609.797 26.5227C610.078 27.3182 610.491 27.947 611.036 28.4091C611.589 28.8636 612.271 29.0909 613.082 29.0909ZM229.779 49.2273V72.5H224.938V49.2273H229.779ZM241.611 72.8409C239.816 72.8409 238.27 72.4773 236.975 71.75C235.687 71.0152 234.695 69.9773 233.998 68.6364C233.301 67.2879 232.952 65.6932 232.952 63.8523C232.952 62.0568 233.301 60.4811 233.998 59.125C234.695 57.7689 235.676 56.7121 236.941 55.9545C238.214 55.197 239.706 54.8182 241.418 54.8182C242.57 54.8182 243.642 55.0038 244.634 55.375C245.634 55.7386 246.505 56.2879 247.248 57.0227C247.998 57.7576 248.581 58.6818 248.998 59.7955C249.414 60.9015 249.623 62.197 249.623 63.6818V65.0114H234.884V62.0114H245.066C245.066 61.3144 244.914 60.697 244.611 60.1591C244.308 59.6212 243.888 59.2008 243.35 58.8977C242.82 58.5871 242.202 58.4318 241.498 58.4318C240.763 58.4318 240.111 58.6023 239.543 58.9432C238.983 59.2765 238.543 59.7273 238.225 60.2955C237.907 60.8561 237.744 61.4811 237.736 62.1705V65.0227C237.736 65.8864 237.895 66.6326 238.214 67.2614C238.539 67.8902 238.998 68.375 239.589 68.7159C240.18 69.0568 240.88 69.2273 241.691 69.2273C242.229 69.2273 242.721 69.1515 243.168 69C243.615 68.8485 243.998 68.6212 244.316 68.3182C244.634 68.0152 244.877 67.6439 245.043 67.2045L249.52 67.5C249.293 68.5758 248.827 69.5152 248.123 70.3182C247.426 71.1136 246.524 71.7348 245.418 72.1818C244.32 72.6212 243.051 72.8409 241.611 72.8409ZM257.759 72.8295C256.645 72.8295 255.653 72.6364 254.782 72.25C253.911 71.8561 253.221 71.2765 252.714 70.5114C252.214 69.7386 251.964 68.7765 251.964 67.625C251.964 66.6553 252.142 65.8409 252.498 65.1818C252.854 64.5227 253.339 63.9924 253.952 63.5909C254.566 63.1894 255.263 62.8864 256.043 62.6818C256.831 62.4773 257.657 62.3333 258.52 62.25C259.536 62.1439 260.354 62.0455 260.975 61.9545C261.596 61.8561 262.047 61.7121 262.327 61.5227C262.608 61.3333 262.748 61.053 262.748 60.6818V60.6136C262.748 59.8939 262.52 59.3371 262.066 58.9432C261.619 58.5492 260.983 58.3523 260.157 58.3523C259.286 58.3523 258.592 58.5455 258.077 58.9318C257.562 59.3106 257.221 59.7879 257.055 60.3636L252.577 60C252.805 58.9394 253.252 58.0227 253.918 57.25C254.585 56.4697 255.445 55.8712 256.498 55.4545C257.558 55.0303 258.786 54.8182 260.18 54.8182C261.149 54.8182 262.077 54.9318 262.964 55.1591C263.858 55.3864 264.649 55.7386 265.339 56.2159C266.036 56.6932 266.585 57.3068 266.986 58.0568C267.388 58.7992 267.589 59.6894 267.589 60.7273V72.5H262.998V70.0795H262.861C262.581 70.625 262.206 71.1061 261.736 71.5227C261.267 71.9318 260.702 72.2538 260.043 72.4886C259.384 72.7159 258.623 72.8295 257.759 72.8295ZM259.145 69.4886C259.858 69.4886 260.486 69.3485 261.032 69.0682C261.577 68.7803 262.005 68.3939 262.316 67.9091C262.627 67.4242 262.782 66.875 262.782 66.2614V64.4091C262.63 64.5076 262.422 64.5985 262.157 64.6818C261.899 64.7576 261.608 64.8295 261.282 64.8977C260.956 64.9583 260.63 65.0152 260.305 65.0682C259.979 65.1136 259.683 65.1553 259.418 65.1932C258.85 65.2765 258.354 65.4091 257.93 65.5909C257.505 65.7727 257.176 66.0189 256.941 66.3295C256.706 66.6326 256.589 67.0114 256.589 67.4659C256.589 68.125 256.827 68.6288 257.305 68.9773C257.789 69.3182 258.403 69.4886 259.145 69.4886ZM271.344 72.5V55.0455H276.038V58.0909H276.219C276.538 57.0076 277.072 56.1894 277.822 55.6364C278.572 55.0758 279.435 54.7955 280.413 54.7955C280.655 54.7955 280.916 54.8106 281.197 54.8409C281.477 54.8712 281.723 54.9129 281.935 54.9659V59.2614C281.708 59.1932 281.394 59.1326 280.992 59.0795C280.591 59.0265 280.223 59 279.89 59C279.178 59 278.541 59.1553 277.981 59.4659C277.428 59.7689 276.988 60.1932 276.663 60.7386C276.344 61.2841 276.185 61.9129 276.185 62.625V72.5H271.344ZM289.279 62.4091V72.5H284.438V55.0455H289.052V58.125H289.256C289.643 57.1098 290.29 56.3068 291.199 55.7159C292.109 55.1174 293.211 54.8182 294.506 54.8182C295.718 54.8182 296.775 55.0833 297.677 55.6136C298.578 56.1439 299.279 56.9015 299.779 57.8864C300.279 58.8636 300.529 60.0303 300.529 61.3864V72.5H295.688V62.25C295.696 61.1818 295.423 60.3485 294.87 59.75C294.317 59.1439 293.555 58.8409 292.586 58.8409C291.934 58.8409 291.359 58.9811 290.859 59.2614C290.366 59.5417 289.98 59.9508 289.699 60.4886C289.427 61.0189 289.287 61.6591 289.279 62.4091ZM316.728 72.8295C315.614 72.8295 314.622 72.6364 313.751 72.25C312.879 71.8561 312.19 71.2765 311.682 70.5114C311.182 69.7386 310.932 68.7765 310.932 67.625C310.932 66.6553 311.11 65.8409 311.466 65.1818C311.823 64.5227 312.307 63.9924 312.921 63.5909C313.535 63.1894 314.232 62.8864 315.012 62.6818C315.8 62.4773 316.626 62.3333 317.489 62.25C318.504 62.1439 319.323 62.0455 319.944 61.9545C320.565 61.8561 321.016 61.7121 321.296 61.5227C321.576 61.3333 321.716 61.053 321.716 60.6818V60.6136C321.716 59.8939 321.489 59.3371 321.035 58.9432C320.588 58.5492 319.951 58.3523 319.126 58.3523C318.254 58.3523 317.561 58.5455 317.046 58.9318C316.531 59.3106 316.19 59.7879 316.023 60.3636L311.546 60C311.773 58.9394 312.22 58.0227 312.887 57.25C313.554 56.4697 314.413 55.8712 315.466 55.4545C316.527 55.0303 317.754 54.8182 319.148 54.8182C320.118 54.8182 321.046 54.9318 321.932 55.1591C322.826 55.3864 323.618 55.7386 324.307 56.2159C325.004 56.6932 325.554 57.3068 325.955 58.0568C326.357 58.7992 326.557 59.6894 326.557 60.7273V72.5H321.966V70.0795H321.83C321.55 70.625 321.175 71.1061 320.705 71.5227C320.235 71.9318 319.671 72.2538 319.012 72.4886C318.353 72.7159 317.591 72.8295 316.728 72.8295ZM318.114 69.4886C318.826 69.4886 319.455 69.3485 320.001 69.0682C320.546 68.7803 320.974 68.3939 321.285 67.9091C321.595 67.4242 321.751 66.875 321.751 66.2614V64.4091C321.599 64.5076 321.391 64.5985 321.126 64.6818C320.868 64.7576 320.576 64.8295 320.251 64.8977C319.925 64.9583 319.599 65.0152 319.273 65.0682C318.948 65.1136 318.652 65.1553 318.387 65.1932C317.819 65.2765 317.323 65.4091 316.898 65.5909C316.474 65.7727 316.145 66.0189 315.91 66.3295C315.675 66.6326 315.557 67.0114 315.557 67.4659C315.557 68.125 315.796 68.6288 316.273 68.9773C316.758 69.3182 317.372 69.4886 318.114 69.4886ZM342.56 49.2273V72.5H337.719V49.2273H342.56ZM351.415 72.8295C350.302 72.8295 349.309 72.6364 348.438 72.25C347.567 71.8561 346.877 71.2765 346.37 70.5114C345.87 69.7386 345.62 68.7765 345.62 67.625C345.62 66.6553 345.798 65.8409 346.154 65.1818C346.51 64.5227 346.995 63.9924 347.609 63.5909C348.222 63.1894 348.919 62.8864 349.699 62.6818C350.487 62.4773 351.313 62.3333 352.177 62.25C353.192 62.1439 354.01 62.0455 354.631 61.9545C355.252 61.8561 355.703 61.7121 355.984 61.5227C356.264 61.3333 356.404 61.053 356.404 60.6818V60.6136C356.404 59.8939 356.177 59.3371 355.722 58.9432C355.275 58.5492 354.639 58.3523 353.813 58.3523C352.942 58.3523 352.249 58.5455 351.734 58.9318C351.218 59.3106 350.877 59.7879 350.711 60.3636L346.234 60C346.461 58.9394 346.908 58.0227 347.574 57.25C348.241 56.4697 349.101 55.8712 350.154 55.4545C351.215 55.0303 352.442 54.8182 353.836 54.8182C354.805 54.8182 355.734 54.9318 356.62 55.1591C357.514 55.3864 358.305 55.7386 358.995 56.2159C359.692 56.6932 360.241 57.3068 360.643 58.0568C361.044 58.7992 361.245 59.6894 361.245 60.7273V72.5H356.654V70.0795H356.518C356.237 70.625 355.862 71.1061 355.393 71.5227C354.923 71.9318 354.359 72.2538 353.699 72.4886C353.04 72.7159 352.279 72.8295 351.415 72.8295ZM352.802 69.4886C353.514 69.4886 354.143 69.3485 354.688 69.0682C355.234 68.7803 355.662 68.3939 355.972 67.9091C356.283 67.4242 356.438 66.875 356.438 66.2614V64.4091C356.287 64.5076 356.078 64.5985 355.813 64.6818C355.555 64.7576 355.264 64.8295 354.938 64.8977C354.612 64.9583 354.287 65.0152 353.961 65.0682C353.635 65.1136 353.34 65.1553 353.074 65.1932C352.506 65.2765 352.01 65.4091 351.586 65.5909C351.162 65.7727 350.832 66.0189 350.597 66.3295C350.362 66.6326 350.245 67.0114 350.245 67.4659C350.245 68.125 350.484 68.6288 350.961 68.9773C351.446 69.3182 352.059 69.4886 352.802 69.4886ZM369.841 62.4091V72.5H365.001V55.0455H369.614V58.125H369.819C370.205 57.1098 370.853 56.3068 371.762 55.7159C372.671 55.1174 373.773 54.8182 375.069 54.8182C376.281 54.8182 377.338 55.0833 378.239 55.6136C379.141 56.1439 379.841 56.9015 380.341 57.8864C380.841 58.8636 381.091 60.0303 381.091 61.3864V72.5H376.251V62.25C376.258 61.1818 375.985 60.3485 375.432 59.75C374.879 59.1439 374.118 58.8409 373.148 58.8409C372.497 58.8409 371.921 58.9811 371.421 59.2614C370.929 59.5417 370.542 59.9508 370.262 60.4886C369.989 61.0189 369.849 61.6591 369.841 62.4091ZM392.77 79.4091C391.202 79.4091 389.858 79.1932 388.736 78.7614C387.623 78.3371 386.736 77.7576 386.077 77.0227C385.418 76.2879 384.99 75.4621 384.793 74.5455L389.27 73.9432C389.407 74.2917 389.623 74.6174 389.918 74.9205C390.214 75.2235 390.604 75.4659 391.089 75.6477C391.581 75.8371 392.18 75.9318 392.884 75.9318C393.937 75.9318 394.805 75.6742 395.486 75.1591C396.176 74.6515 396.52 73.7992 396.52 72.6023V69.4091H396.316C396.104 69.8939 395.786 70.3523 395.361 70.7841C394.937 71.2159 394.392 71.5682 393.725 71.8409C393.058 72.1136 392.263 72.25 391.339 72.25C390.028 72.25 388.835 71.947 387.759 71.3409C386.691 70.7273 385.839 69.7917 385.202 68.5341C384.573 67.2689 384.259 65.6705 384.259 63.7386C384.259 61.7614 384.581 60.1098 385.225 58.7841C385.869 57.4583 386.725 56.4659 387.793 55.8068C388.869 55.1477 390.047 54.8182 391.327 54.8182C392.305 54.8182 393.123 54.9848 393.782 55.3182C394.441 55.6439 394.971 56.053 395.373 56.5455C395.782 57.0303 396.096 57.5076 396.316 57.9773H396.498V55.0455H401.305V72.6705C401.305 74.1553 400.941 75.3977 400.214 76.3977C399.486 77.3977 398.479 78.1477 397.191 78.6477C395.911 79.1553 394.437 79.4091 392.77 79.4091ZM392.873 68.6136C393.653 68.6136 394.312 68.4205 394.85 68.0341C395.395 67.6402 395.812 67.0795 396.1 66.3523C396.395 65.6174 396.543 64.7386 396.543 63.7159C396.543 62.6932 396.399 61.8068 396.111 61.0568C395.823 60.2992 395.407 59.7121 394.861 59.2955C394.316 58.8788 393.653 58.6705 392.873 58.6705C392.077 58.6705 391.407 58.8864 390.861 59.3182C390.316 59.7424 389.903 60.3333 389.623 61.0909C389.342 61.8485 389.202 62.7235 389.202 63.7159C389.202 64.7235 389.342 65.5947 389.623 66.3295C389.911 67.0568 390.323 67.6212 390.861 68.0227C391.407 68.4167 392.077 68.6136 392.873 68.6136ZM416.35 65.0682V55.0455H421.191V72.5H416.543V69.3295H416.361C415.967 70.3523 415.312 71.1742 414.395 71.7955C413.486 72.4167 412.377 72.7273 411.066 72.7273C409.899 72.7273 408.873 72.4621 407.986 71.9318C407.1 71.4015 406.407 70.6477 405.907 69.6705C405.414 68.6932 405.164 67.5227 405.157 66.1591V55.0455H409.998V65.2955C410.005 66.3258 410.282 67.1402 410.827 67.7386C411.373 68.3371 412.104 68.6364 413.02 68.6364C413.604 68.6364 414.149 68.5038 414.657 68.2386C415.164 67.9659 415.573 67.5644 415.884 67.0341C416.202 66.5038 416.358 65.8485 416.35 65.0682ZM430.04 72.8295C428.927 72.8295 427.934 72.6364 427.063 72.25C426.192 71.8561 425.502 71.2765 424.995 70.5114C424.495 69.7386 424.245 68.7765 424.245 67.625C424.245 66.6553 424.423 65.8409 424.779 65.1818C425.135 64.5227 425.62 63.9924 426.234 63.5909C426.847 63.1894 427.544 62.8864 428.324 62.6818C429.112 62.4773 429.938 62.3333 430.802 62.25C431.817 62.1439 432.635 62.0455 433.256 61.9545C433.877 61.8561 434.328 61.7121 434.609 61.5227C434.889 61.3333 435.029 61.053 435.029 60.6818V60.6136C435.029 59.8939 434.802 59.3371 434.347 58.9432C433.9 58.5492 433.264 58.3523 432.438 58.3523C431.567 58.3523 430.874 58.5455 430.359 58.9318C429.843 59.3106 429.502 59.7879 429.336 60.3636L424.859 60C425.086 58.9394 425.533 58.0227 426.199 57.25C426.866 56.4697 427.726 55.8712 428.779 55.4545C429.84 55.0303 431.067 54.8182 432.461 54.8182C433.43 54.8182 434.359 54.9318 435.245 55.1591C436.139 55.3864 436.93 55.7386 437.62 56.2159C438.317 56.6932 438.866 57.3068 439.268 58.0568C439.669 58.7992 439.87 59.6894 439.87 60.7273V72.5H435.279V70.0795H435.143C434.862 70.625 434.487 71.1061 434.018 71.5227C433.548 71.9318 432.984 72.2538 432.324 72.4886C431.665 72.7159 430.904 72.8295 430.04 72.8295ZM431.427 69.4886C432.139 69.4886 432.768 69.3485 433.313 69.0682C433.859 68.7803 434.287 68.3939 434.597 67.9091C434.908 67.4242 435.063 66.875 435.063 66.2614V64.4091C434.912 64.5076 434.703 64.5985 434.438 64.6818C434.18 64.7576 433.889 64.8295 433.563 64.8977C433.237 64.9583 432.912 65.0152 432.586 65.0682C432.26 65.1136 431.965 65.1553 431.699 65.1932C431.131 65.2765 430.635 65.4091 430.211 65.5909C429.787 65.7727 429.457 66.0189 429.222 66.3295C428.987 66.6326 428.87 67.0114 428.87 67.4659C428.87 68.125 429.109 68.6288 429.586 68.9773C430.071 69.3182 430.684 69.4886 431.427 69.4886ZM451.489 79.4091C449.921 79.4091 448.576 79.1932 447.455 78.7614C446.341 78.3371 445.455 77.7576 444.796 77.0227C444.137 76.2879 443.709 75.4621 443.512 74.5455L447.989 73.9432C448.126 74.2917 448.341 74.6174 448.637 74.9205C448.932 75.2235 449.323 75.4659 449.807 75.6477C450.3 75.8371 450.898 75.9318 451.603 75.9318C452.656 75.9318 453.523 75.6742 454.205 75.1591C454.895 74.6515 455.239 73.7992 455.239 72.6023V69.4091H455.035C454.823 69.8939 454.504 70.3523 454.08 70.7841C453.656 71.2159 453.11 71.5682 452.444 71.8409C451.777 72.1136 450.982 72.25 450.057 72.25C448.747 72.25 447.554 71.947 446.478 71.3409C445.41 70.7273 444.557 69.7917 443.921 68.5341C443.292 67.2689 442.978 65.6705 442.978 63.7386C442.978 61.7614 443.3 60.1098 443.944 58.7841C444.588 57.4583 445.444 56.4659 446.512 55.8068C447.588 55.1477 448.766 54.8182 450.046 54.8182C451.023 54.8182 451.841 54.9848 452.501 55.3182C453.16 55.6439 453.69 56.053 454.091 56.5455C454.501 57.0303 454.815 57.5076 455.035 57.9773H455.216V55.0455H460.023V72.6705C460.023 74.1553 459.66 75.3977 458.932 76.3977C458.205 77.3977 457.198 78.1477 455.91 78.6477C454.629 79.1553 453.156 79.4091 451.489 79.4091ZM451.591 68.6136C452.372 68.6136 453.031 68.4205 453.569 68.0341C454.114 67.6402 454.531 67.0795 454.819 66.3523C455.114 65.6174 455.262 64.7386 455.262 63.7159C455.262 62.6932 455.118 61.8068 454.83 61.0568C454.542 60.2992 454.126 59.7121 453.58 59.2955C453.035 58.8788 452.372 58.6705 451.591 58.6705C450.796 58.6705 450.126 58.8864 449.58 59.3182C449.035 59.7424 448.622 60.3333 448.341 61.0909C448.061 61.8485 447.921 62.7235 447.921 63.7159C447.921 64.7235 448.061 65.5947 448.341 66.3295C448.629 67.0568 449.042 67.6212 449.58 68.0227C450.126 68.4167 450.796 68.6136 451.591 68.6136ZM471.83 72.8409C470.035 72.8409 468.489 72.4773 467.194 71.75C465.906 71.0152 464.913 69.9773 464.216 68.6364C463.52 67.2879 463.171 65.6932 463.171 63.8523C463.171 62.0568 463.52 60.4811 464.216 59.125C464.913 57.7689 465.895 56.7121 467.16 55.9545C468.432 55.197 469.925 54.8182 471.637 54.8182C472.788 54.8182 473.86 55.0038 474.853 55.375C475.853 55.7386 476.724 56.2879 477.466 57.0227C478.216 57.7576 478.8 58.6818 479.216 59.7955C479.633 60.9015 479.841 62.197 479.841 63.6818V65.0114H465.103V62.0114H475.285C475.285 61.3144 475.133 60.697 474.83 60.1591C474.527 59.6212 474.107 59.2008 473.569 58.8977C473.038 58.5871 472.421 58.4318 471.716 58.4318C470.982 58.4318 470.33 58.6023 469.762 58.9432C469.201 59.2765 468.762 59.7273 468.444 60.2955C468.126 60.8561 467.963 61.4811 467.955 62.1705V65.0227C467.955 65.8864 468.114 66.6326 468.432 67.2614C468.758 67.8902 469.216 68.375 469.807 68.7159C470.398 69.0568 471.099 69.2273 471.91 69.2273C472.448 69.2273 472.94 69.1515 473.387 69C473.834 68.8485 474.216 68.6212 474.535 68.3182C474.853 68.0152 475.095 67.6439 475.262 67.2045L479.739 67.5C479.512 68.5758 479.046 69.5152 478.341 70.3182C477.645 71.1136 476.743 71.7348 475.637 72.1818C474.538 72.6212 473.27 72.8409 471.83 72.8409ZM488.785 49.2273L488.341 65.5227H484.182L483.728 49.2273H488.785ZM486.262 72.7955C485.512 72.7955 484.868 72.5303 484.33 72C483.792 71.4621 483.527 70.8182 483.535 70.0682C483.527 69.3258 483.792 68.6894 484.33 68.1591C484.868 67.6288 485.512 67.3636 486.262 67.3636C486.982 67.3636 487.614 67.6288 488.16 68.1591C488.705 68.6894 488.982 69.3258 488.989 70.0682C488.982 70.5682 488.849 71.0265 488.591 71.4432C488.341 71.8523 488.012 72.1818 487.603 72.4318C487.194 72.6742 486.747 72.7955 486.262 72.7955Z" fill="white"/>
<defs>
<filter id="filter0_d_1_2896" x="197.125" y="128" width="320" height="50" filterUnits="userSpaceOnUse" color-interpolation-filters="sRGB">
<feFlood flood-opacity="0" result="BackgroundImageFix"/>
<feColorMatrix in="SourceAlpha" type="matrix" values="0 0 0 0 0 0 0 0 0 0 0 0 0 0 0 0 0 0 127 0" result="hardAlpha"/>
<feOffset dy="4"/>
<feComposite in2="hardAlpha" operator="out"/>
<feColorMatrix type="matrix" values="0 0 0 0 0.345098 0 0 0 0 0.654902 0 0 0 0 0 0 0 0 1 0"/>
<feBlend mode="normal" in2="BackgroundImageFix" result="effect1_dropShadow_1_2896"/>
<feBlend mode="normal" in="SourceGraphic" in2="effect1_dropShadow_1_2896" result="shape"/>
</filter>
<filter id="filter1_d_1_2896" x="197.125" y="190" width="320" height="50" filterUnits="userSpaceOnUse" color-interpolation-filters="sRGB">
<feFlood flood-opacity="0" result="BackgroundImageFix"/>
<feColorMatrix in="SourceAlpha" type="matrix" values="0 0 0 0 0 0 0 0 0 0 0 0 0 0 0 0 0 0 127 0" result="hardAlpha"/>
<feOffset dy="2"/>
<feComposite in2="hardAlpha" operator="out"/>
<feColorMatrix type="matrix" values="0 0 0 0 0.0156863 0 0 0 0 0.172549 0 0 0 0 0.376471 0 0 0 1 0"/>
<feBlend mode="normal" in2="BackgroundImageFix" result="effect1_dropShadow_1_2896"/>
<feBlend mode="normal" in="SourceGraphic" in2="effect1_dropShadow_1_2896" result="shape"/>
</filter>
</defs>
</svg>
