<svg width="321" height="53" viewBox="0 0 321 53" fill="none" xmlns="http://www.w3.org/2000/svg">
<g filter="url(#filter0_d_1_2897)">
<rect x="0.125" width="320" height="46" rx="16" fill="#58CC02"/>
</g>
<path d="M118.335 21.6016C118.27 21.3769 118.18 21.1784 118.063 21.006C117.946 20.8306 117.802 20.6829 117.633 20.5629C117.467 20.4397 117.276 20.3459 117.061 20.2812C116.848 20.2166 116.613 20.1843 116.354 20.1843C115.871 20.1843 115.447 20.3043 115.08 20.5444C114.717 20.7844 114.434 21.1338 114.231 21.5923C114.028 22.0478 113.926 22.6049 113.926 23.2635C113.926 23.9221 114.026 24.4822 114.226 24.9439C114.426 25.4055 114.709 25.7579 115.076 26.0011C115.442 26.2411 115.874 26.3612 116.373 26.3612C116.825 26.3612 117.212 26.2811 117.532 26.1211C117.855 25.958 118.101 25.7287 118.27 25.4332C118.443 25.1378 118.529 24.7885 118.529 24.3853L118.935 24.4453H116.498V22.9403H120.454V24.1314C120.454 24.9624 120.278 25.6764 119.928 26.2734C119.577 26.8674 119.094 27.326 118.478 27.6491C117.863 27.9692 117.158 28.1293 116.364 28.1293C115.477 28.1293 114.699 27.9338 114.028 27.543C113.357 27.149 112.834 26.5904 112.458 25.8672C112.086 25.1409 111.9 24.2791 111.9 23.282C111.9 22.5156 112.01 21.8324 112.232 21.2322C112.457 20.629 112.771 20.1181 113.174 19.6996C113.577 19.281 114.046 18.9625 114.582 18.744C115.117 18.5254 115.697 18.4162 116.322 18.4162C116.858 18.4162 117.356 18.4947 117.818 18.6516C118.28 18.8055 118.689 19.024 119.046 19.3072C119.406 19.5903 119.7 19.9273 119.928 20.3182C120.155 20.706 120.302 21.1338 120.366 21.6016H118.335ZM122.755 28V18.5455H129.126V20.1935H124.754V22.4464H128.798V24.0945H124.754V26.3519H129.145V28H122.755ZM131.155 20.1935V18.5455H138.92V20.1935H136.026V28H134.05V20.1935H131.155ZM149.937 21.2646C149.9 20.8922 149.741 20.6029 149.461 20.3967C149.181 20.1905 148.801 20.0874 148.321 20.0874C147.995 20.0874 147.719 20.1335 147.495 20.2259C147.27 20.3151 147.098 20.4397 146.977 20.5998C146.861 20.7598 146.802 20.9414 146.802 21.1445C146.796 21.3138 146.831 21.4615 146.908 21.5877C146.988 21.7139 147.098 21.8232 147.236 21.9155C147.375 22.0047 147.535 22.0832 147.716 22.1509C147.898 22.2156 148.092 22.271 148.298 22.3171L149.147 22.5202C149.56 22.6126 149.938 22.7357 150.283 22.8896C150.628 23.0434 150.926 23.2327 151.178 23.4574C151.431 23.6821 151.626 23.9467 151.765 24.2514C151.906 24.5561 151.979 24.9054 151.982 25.2994C151.979 25.878 151.831 26.3796 151.539 26.8043C151.249 27.226 150.831 27.5537 150.283 27.7876C149.738 28.0185 149.081 28.1339 148.312 28.1339C147.548 28.1339 146.884 28.0169 146.317 27.783C145.754 27.5491 145.314 27.2029 144.997 26.7443C144.683 26.2827 144.518 25.7118 144.503 25.0316H146.437C146.459 25.3486 146.55 25.6133 146.71 25.8256C146.873 26.0349 147.09 26.1934 147.361 26.3011C147.635 26.4058 147.944 26.4581 148.289 26.4581C148.627 26.4581 148.921 26.4089 149.17 26.3104C149.423 26.2119 149.618 26.0749 149.757 25.8995C149.895 25.7241 149.964 25.5225 149.964 25.2947C149.964 25.0824 149.901 24.9039 149.775 24.7592C149.652 24.6146 149.47 24.4915 149.23 24.3899C148.993 24.2884 148.703 24.196 148.358 24.1129L147.328 23.8544C146.531 23.6605 145.902 23.3574 145.44 22.945C144.979 22.5326 144.749 21.977 144.752 21.2784C144.749 20.706 144.902 20.2058 145.209 19.7781C145.52 19.3503 145.946 19.0163 146.488 18.7763C147.03 18.5362 147.645 18.4162 148.335 18.4162C149.036 18.4162 149.649 18.5362 150.172 18.7763C150.698 19.0163 151.108 19.3503 151.4 19.7781C151.692 20.2058 151.843 20.7013 151.852 21.2646H149.937ZM153.766 20.1935V18.5455H161.531V20.1935H158.637V28H156.661V20.1935H153.766ZM164.084 28H161.942L165.206 18.5455H167.782L171.041 28H168.899L166.531 20.706H166.457L164.084 28ZM163.95 24.2837H169.01V25.8441H163.95V24.2837ZM172.979 28V18.5455H176.709C177.423 18.5455 178.033 18.6732 178.537 18.9286C179.045 19.181 179.432 19.5395 179.696 20.0043C179.964 20.4659 180.098 21.0091 180.098 21.6339C180.098 22.2617 179.962 22.8018 179.692 23.2543C179.421 23.7036 179.028 24.0483 178.514 24.2884C178.003 24.5284 177.385 24.6484 176.659 24.6484H174.161V23.0419H176.335C176.717 23.0419 177.034 22.9896 177.286 22.8849C177.539 22.7803 177.727 22.6233 177.85 22.4141C177.976 22.2048 178.039 21.9447 178.039 21.6339C178.039 21.32 177.976 21.0553 177.85 20.8398C177.727 20.6244 177.537 20.4613 177.282 20.3505C177.029 20.2366 176.711 20.1797 176.326 20.1797H174.978V28H172.979ZM178.085 23.6974L180.435 28H178.228L175.929 23.6974H178.085ZM181.95 20.1935V18.5455H189.715V20.1935H186.821V28H184.845V20.1935H181.95ZM191.794 28V18.5455H198.165V20.1935H193.793V22.4464H197.837V24.0945H193.793V26.3519H198.183V28H191.794ZM203.906 28H200.554V18.5455H203.933C204.884 18.5455 205.703 18.7347 206.389 19.1133C207.076 19.4888 207.603 20.0289 207.973 20.7337C208.345 21.4384 208.531 22.2817 208.531 23.2635C208.531 24.2483 208.345 25.0947 207.973 25.8026C207.603 26.5104 207.072 27.0536 206.38 27.4322C205.691 27.8107 204.866 28 203.906 28ZM202.553 26.2873H203.822C204.413 26.2873 204.91 26.1826 205.314 25.9734C205.72 25.761 206.025 25.4332 206.228 24.9901C206.434 24.5438 206.537 23.9683 206.537 23.2635C206.537 22.5649 206.434 21.994 206.228 21.5508C206.025 21.1076 205.721 20.7814 205.318 20.5721C204.915 20.3628 204.418 20.2582 203.827 20.2582H202.553V26.2873Z" fill="white"/>
<defs>
<filter id="filter0_d_1_2897" x="0.125" y="0" width="320" height="50" filterUnits="userSpaceOnUse" color-interpolation-filters="sRGB">
<feFlood flood-opacity="0" result="BackgroundImageFix"/>
<feColorMatrix in="SourceAlpha" type="matrix" values="0 0 0 0 0 0 0 0 0 0 0 0 0 0 0 0 0 0 127 0" result="hardAlpha"/>
<feOffset dy="4"/>
<feComposite in2="hardAlpha" operator="out"/>
<feColorMatrix type="matrix" values="0 0 0 0 0.345098 0 0 0 0 0.654902 0 0 0 0 0 0 0 0 1 0"/>
<feBlend mode="normal" in2="BackgroundImageFix" result="effect1_dropShadow_1_2897"/>
<feBlend mode="normal" in="SourceGraphic" in2="effect1_dropShadow_1_2897" result="shape"/>
</filter>
</defs>
</svg>
