<svg width="1004" height="74" viewBox="0 0 1004 74" fill="none" xmlns="http://www.w3.org/2000/svg">
<g clip-path="url(#clip0_1_2905)">
<path d="M13.75 28.75L5.5 37L13.75 45.25" stroke="white" stroke-width="2.75" stroke-linecap="round" stroke-linejoin="round"/>
</g>
<g clip-path="url(#clip1_1_2905)">
<path d="M95.7435 34.7464C95.7037 34.3454 95.533 34.0339 95.2314 33.8118C94.9298 33.5897 94.5205 33.4787 94.0034 33.4787C93.6521 33.4787 93.3554 33.5284 93.1135 33.6278C92.8715 33.724 92.6859 33.8582 92.5567 34.0305C92.4307 34.2029 92.3678 34.3984 92.3678 34.6172C92.3611 34.7995 92.3992 34.9586 92.4821 35.0945C92.5683 35.2304 92.6859 35.348 92.8351 35.4474C92.9842 35.5436 93.1566 35.6281 93.3521 35.701C93.5477 35.7706 93.7565 35.8303 93.9785 35.88L94.8933 36.0987C95.3375 36.1982 95.7451 36.3307 96.1163 36.4964C96.4875 36.6622 96.809 36.866 97.0808 37.108C97.3526 37.3499 97.5631 37.6349 97.7122 37.9631C97.8647 38.2912 97.9426 38.6674 97.9459 39.0916C97.9426 39.7147 97.7835 40.255 97.4686 40.7124C97.1571 41.1664 96.7063 41.5194 96.1163 41.7713C95.5297 42.0199 94.8221 42.1442 93.9935 42.1442C93.1715 42.1442 92.4556 42.0182 91.8457 41.7663C91.2392 41.5144 90.7652 41.1416 90.4239 40.6477C90.0858 40.1506 89.9085 39.5357 89.8919 38.8033H91.975C91.9982 39.1446 92.096 39.4297 92.2683 39.6584C92.444 39.8838 92.6776 40.0545 92.9693 40.1705C93.2643 40.2831 93.5974 40.3395 93.9686 40.3395C94.3332 40.3395 94.6497 40.2865 94.9182 40.1804C95.19 40.0743 95.4004 39.9268 95.5496 39.7379C95.6987 39.549 95.7733 39.3319 95.7733 39.0866C95.7733 38.858 95.7053 38.6657 95.5695 38.5099C95.4369 38.3542 95.2413 38.2216 94.9828 38.1122C94.7276 38.0028 94.4144 37.9034 94.0432 37.8139L92.9345 37.5355C92.0761 37.3267 91.3983 37.0002 90.9011 36.5561C90.404 36.112 90.1571 35.5137 90.1604 34.7614C90.1571 34.1449 90.3211 33.6063 90.6526 33.1456C90.9873 32.6849 91.4464 32.3253 92.0297 32.0668C92.613 31.8082 93.2759 31.679 94.0183 31.679C94.774 31.679 95.4336 31.8082 95.997 32.0668C96.5638 32.3253 97.0046 32.6849 97.3195 33.1456C97.6343 33.6063 97.7967 34.1399 97.8067 34.7464H95.7435ZM100.194 42V31.8182H104.211C104.983 31.8182 105.641 31.9657 106.185 32.2607C106.728 32.5523 107.142 32.9583 107.428 33.4787C107.716 33.9957 107.86 34.5923 107.86 35.2685C107.86 35.9446 107.714 36.5412 107.423 37.0582C107.131 37.5753 106.708 37.978 106.155 38.2663C105.605 38.5547 104.938 38.6989 104.156 38.6989H101.596V36.9737H103.808C104.223 36.9737 104.564 36.9025 104.832 36.7599C105.104 36.6141 105.306 36.4136 105.439 36.1584C105.575 35.8999 105.643 35.6032 105.643 35.2685C105.643 34.9304 105.575 34.6354 105.439 34.3835C105.306 34.1283 105.104 33.9311 104.832 33.7919C104.561 33.6494 104.216 33.5781 103.798 33.5781H102.347V42H100.194ZM110.637 42H108.331L111.846 31.8182H114.62L118.13 42H115.823L113.272 34.1449H113.193L110.637 42ZM110.493 37.9979H115.942V39.6783H110.493V37.9979ZM128.672 31.8182V42H126.812L122.382 35.5916H122.308V42H120.155V31.8182H122.044L126.439 38.2216H126.529V31.8182H128.672ZM133.403 31.8182V42H131.25V31.8182H133.403ZM141.497 34.7464C141.458 34.3454 141.287 34.0339 140.985 33.8118C140.684 33.5897 140.274 33.4787 139.757 33.4787C139.406 33.4787 139.109 33.5284 138.867 33.6278C138.625 33.724 138.44 33.8582 138.311 34.0305C138.185 34.2029 138.122 34.3984 138.122 34.6172C138.115 34.7995 138.153 34.9586 138.236 35.0945C138.322 35.2304 138.44 35.348 138.589 35.4474C138.738 35.5436 138.91 35.6281 139.106 35.701C139.302 35.7706 139.51 35.8303 139.732 35.88L140.647 36.0987C141.091 36.1982 141.499 36.3307 141.87 36.4964C142.241 36.6622 142.563 36.866 142.835 37.108C143.107 37.3499 143.317 37.6349 143.466 37.9631C143.619 38.2912 143.696 38.6674 143.7 39.0916C143.696 39.7147 143.537 40.255 143.223 40.7124C142.911 41.1664 142.46 41.5194 141.87 41.7713C141.284 42.0199 140.576 42.1442 139.747 42.1442C138.925 42.1442 138.209 42.0182 137.6 41.7663C136.993 41.5144 136.519 41.1416 136.178 40.6477C135.84 40.1506 135.662 39.5357 135.646 38.8033H137.729C137.752 39.1446 137.85 39.4297 138.022 39.6584C138.198 39.8838 138.432 40.0545 138.723 40.1705C139.018 40.2831 139.351 40.3395 139.723 40.3395C140.087 40.3395 140.404 40.2865 140.672 40.1804C140.944 40.0743 141.154 39.9268 141.303 39.7379C141.453 39.549 141.527 39.3319 141.527 39.0866C141.527 38.858 141.459 38.6657 141.323 38.5099C141.191 38.3542 140.995 38.2216 140.737 38.1122C140.482 38.0028 140.168 37.9034 139.797 37.8139L138.688 37.5355C137.83 37.3267 137.152 37.0002 136.655 36.5561C136.158 36.112 135.911 35.5137 135.914 34.7614C135.911 34.1449 136.075 33.6063 136.406 33.1456C136.741 32.6849 137.2 32.3253 137.784 32.0668C138.367 31.8082 139.03 31.679 139.772 31.679C140.528 31.679 141.187 31.8082 141.751 32.0668C142.318 32.3253 142.758 32.6849 143.073 33.1456C143.388 33.6063 143.551 34.1399 143.561 34.7464H141.497ZM145.948 42V31.8182H148.1V36.0192H152.47V31.8182H154.618V42H152.47V37.794H148.1V42H145.948Z" fill="white"/>
<path d="M223.625 42V32.5455H229.885V34.1935H225.624V36.4464H229.469V38.0945H225.624V42H223.625ZM232.029 42V32.5455H235.759C236.473 32.5455 237.083 32.6732 237.588 32.9286C238.095 33.181 238.482 33.5395 238.746 34.0043C239.014 34.4659 239.148 35.0091 239.148 35.6339C239.148 36.2617 239.013 36.8018 238.742 37.2543C238.471 37.7036 238.078 38.0483 237.564 38.2884C237.054 38.5284 236.435 38.6484 235.709 38.6484H233.211V37.0419H235.386C235.767 37.0419 236.084 36.9896 236.336 36.8849C236.589 36.7803 236.777 36.6233 236.9 36.4141C237.026 36.2048 237.089 35.9447 237.089 35.6339C237.089 35.32 237.026 35.0553 236.9 34.8398C236.777 34.6244 236.587 34.4613 236.332 34.3505C236.08 34.2366 235.761 34.1797 235.376 34.1797H234.028V42H232.029ZM237.135 37.6974L239.485 42H237.278L234.979 37.6974H237.135ZM241.361 42V32.5455H247.731V34.1935H243.36V36.4464H247.404V38.0945H243.36V40.3519H247.75V42H241.361ZM258.029 32.5455V42H256.302L252.189 36.0494H252.119V42H250.121V32.5455H251.875L255.956 38.4915H256.039V32.5455H258.029ZM268.822 35.8555H266.8C266.763 35.5939 266.688 35.3615 266.574 35.1584C266.46 34.9522 266.314 34.7768 266.135 34.6321C265.957 34.4875 265.751 34.3767 265.517 34.2997C265.286 34.2228 265.035 34.1843 264.764 34.1843C264.275 34.1843 263.849 34.3059 263.485 34.549C263.122 34.7891 262.841 35.1399 262.641 35.6016C262.441 36.0601 262.341 36.6172 262.341 37.2727C262.341 37.9467 262.441 38.513 262.641 38.9716C262.844 39.4302 263.127 39.7764 263.49 40.0103C263.853 40.2442 264.273 40.3612 264.75 40.3612C265.018 40.3612 265.266 40.3258 265.494 40.255C265.724 40.1842 265.929 40.0811 266.108 39.9457C266.286 39.8072 266.434 39.6394 266.551 39.4425C266.671 39.2455 266.754 39.0208 266.8 38.7685L268.822 38.7777C268.77 39.2116 268.639 39.6302 268.43 40.0334C268.223 40.4335 267.945 40.792 267.594 41.109C267.246 41.4229 266.831 41.6722 266.348 41.8569C265.868 42.0385 265.324 42.1293 264.718 42.1293C263.875 42.1293 263.121 41.9384 262.456 41.5568C261.794 41.1752 261.271 40.6228 260.886 39.8995C260.505 39.1763 260.314 38.3007 260.314 37.2727C260.314 36.2417 260.508 35.3646 260.896 34.6413C261.283 33.9181 261.81 33.3672 262.474 32.9886C263.139 32.607 263.887 32.4162 264.718 32.4162C265.266 32.4162 265.774 32.4931 266.241 32.647C266.712 32.8009 267.129 33.0256 267.493 33.321C267.856 33.6134 268.151 33.9719 268.379 34.3967C268.61 34.8214 268.757 35.3076 268.822 35.8555ZM271.055 42V32.5455H273.054V36.4464H277.112V32.5455H279.107V42H277.112V38.0945H273.054V42H271.055Z" fill="white"/>
<path d="M355.05 35.6016C354.986 35.3769 354.895 35.1784 354.778 35.006C354.661 34.8306 354.518 34.6829 354.349 34.5629C354.182 34.4397 353.992 34.3459 353.776 34.2812C353.564 34.2166 353.328 34.1843 353.07 34.1843C352.587 34.1843 352.162 34.3043 351.796 34.5444C351.432 34.7844 351.149 35.1338 350.946 35.5923C350.743 36.0478 350.642 36.6049 350.642 37.2635C350.642 37.9221 350.742 38.4822 350.942 38.9439C351.142 39.4055 351.425 39.7579 351.791 40.0011C352.157 40.2411 352.59 40.3612 353.088 40.3612C353.541 40.3612 353.927 40.2811 354.247 40.1211C354.57 39.958 354.816 39.7287 354.986 39.4332C355.158 39.1378 355.244 38.7885 355.244 38.3853L355.65 38.4453H353.213V36.9403H357.169V38.1314C357.169 38.9624 356.994 39.6764 356.643 40.2734C356.292 40.8674 355.809 41.326 355.193 41.6491C354.578 41.9692 353.873 42.1293 353.079 42.1293C352.193 42.1293 351.414 41.9338 350.743 41.543C350.072 41.149 349.549 40.5904 349.173 39.8672C348.801 39.1409 348.615 38.2791 348.615 37.282C348.615 36.5156 348.726 35.8324 348.947 35.2322C349.172 34.629 349.486 34.1181 349.889 33.6996C350.292 33.281 350.762 32.9625 351.297 32.744C351.833 32.5254 352.413 32.4162 353.037 32.4162C353.573 32.4162 354.072 32.4947 354.533 32.6516C354.995 32.8055 355.404 33.024 355.761 33.3072C356.121 33.5903 356.415 33.9273 356.643 34.3182C356.871 34.706 357.017 35.1338 357.082 35.6016H355.05ZM359.471 42V32.5455H365.841V34.1935H361.47V36.4464H365.514V38.0945H361.47V40.3519H365.86V42H359.471ZM368.231 42V32.5455H371.961C372.675 32.5455 373.284 32.6732 373.789 32.9286C374.297 33.181 374.683 33.5395 374.948 34.0043C375.215 34.4659 375.349 35.0091 375.349 35.6339C375.349 36.2617 375.214 36.8018 374.943 37.2543C374.672 37.7036 374.28 38.0483 373.766 38.2884C373.255 38.5284 372.636 38.6484 371.91 38.6484H369.413V37.0419H371.587C371.969 37.0419 372.285 36.9896 372.538 36.8849C372.79 36.7803 372.978 36.6233 373.101 36.4141C373.227 36.2048 373.29 35.9447 373.29 35.6339C373.29 35.32 373.227 35.0553 373.101 34.8398C372.978 34.6244 372.789 34.4613 372.533 34.3505C372.281 34.2366 371.962 34.1797 371.578 34.1797H370.23V42H368.231ZM373.337 37.6974L375.686 42H373.48L371.181 37.6974H373.337ZM377.562 32.5455H380.027L382.631 38.8977H382.742L385.345 32.5455H387.811V42H385.872V35.8462H385.793L383.346 41.9538H382.026L379.579 35.8232H379.501V42H377.562V32.5455ZM391.887 42H389.745L393.009 32.5455H395.585L398.844 42H396.702L394.334 34.706H394.26L391.887 42ZM391.753 38.2837H396.813V39.8441H391.753V38.2837ZM408.69 32.5455V42H406.964L402.85 36.0494H402.781V42H400.782V32.5455H402.536L406.617 38.4915H406.7V32.5455H408.69Z" fill="white"/>
<path d="M480.632 32.5455V42H478.633V32.5455H480.632ZM482.716 34.1935V32.5455H490.481V34.1935H487.586V42H485.611V34.1935H482.716ZM493.034 42H490.892L494.156 32.5455H496.732L499.991 42H497.849L495.481 34.706H495.407L493.034 42ZM492.9 38.2837H497.96V39.8441H492.9V38.2837ZM501.929 42V32.5455H503.928V40.3519H507.981V42H501.929ZM512.104 32.5455V42H510.105V32.5455H512.104ZM516.178 42H514.036L517.3 32.5455H519.876L523.135 42H520.993L518.625 34.706H518.551L516.178 42ZM516.044 38.2837H521.104V39.8441H516.044V38.2837ZM532.981 32.5455V42H531.255L527.141 36.0494H527.072V42H525.073V32.5455H526.828L530.908 38.4915H530.992V32.5455H532.981Z" fill="white"/>
<path d="M603.93 42V32.5455H607.66C608.377 32.5455 608.988 32.6824 609.492 32.9563C609.997 33.2272 610.382 33.6042 610.646 34.0874C610.914 34.5675 611.048 35.1214 611.048 35.7493C611.048 36.3771 610.913 36.9311 610.642 37.4112C610.371 37.8913 609.979 38.2653 609.465 38.533C608.954 38.8008 608.335 38.9347 607.609 38.9347H605.231V37.3327H607.286C607.67 37.3327 607.987 37.2666 608.237 37.1342C608.489 36.9988 608.677 36.8126 608.8 36.5756C608.926 36.3356 608.989 36.0601 608.989 35.7493C608.989 35.4354 608.926 35.1615 608.8 34.9276C608.677 34.6906 608.489 34.5075 608.237 34.3782C607.984 34.2459 607.664 34.1797 607.276 34.1797H605.928V42H603.93ZM621.835 37.2727C621.835 38.3037 621.639 39.1809 621.248 39.9041C620.861 40.6274 620.331 41.1798 619.66 41.5614C618.993 41.94 618.242 42.1293 617.408 42.1293C616.567 42.1293 615.813 41.9384 615.145 41.5568C614.478 41.1752 613.95 40.6228 613.562 39.8995C613.174 39.1763 612.98 38.3007 612.98 37.2727C612.98 36.2417 613.174 35.3646 613.562 34.6413C613.95 33.9181 614.478 33.3672 615.145 32.9886C615.813 32.607 616.567 32.4162 617.408 32.4162C618.242 32.4162 618.993 32.607 619.66 32.9886C620.331 33.3672 620.861 33.9181 621.248 34.6413C621.639 35.3646 621.835 36.2417 621.835 37.2727ZM619.808 37.2727C619.808 36.6049 619.708 36.0417 619.508 35.5831C619.311 35.1245 619.033 34.7768 618.672 34.5398C618.312 34.3028 617.891 34.1843 617.408 34.1843C616.924 34.1843 616.503 34.3028 616.143 34.5398C615.783 34.7768 615.502 35.1245 615.302 35.5831C615.105 36.0417 615.007 36.6049 615.007 37.2727C615.007 37.9406 615.105 38.5038 615.302 38.9624C615.502 39.4209 615.783 39.7687 616.143 40.0057C616.503 40.2427 616.924 40.3612 617.408 40.3612C617.891 40.3612 618.312 40.2427 618.672 40.0057C619.033 39.7687 619.311 39.4209 619.508 38.9624C619.708 38.5038 619.808 37.9406 619.808 37.2727ZM624.115 42V32.5455H627.846C628.56 32.5455 629.169 32.6732 629.674 32.9286C630.182 33.181 630.568 33.5395 630.832 34.0043C631.1 34.4659 631.234 35.0091 631.234 35.6339C631.234 36.2617 631.099 36.8018 630.828 37.2543C630.557 37.7036 630.165 38.0483 629.651 38.2884C629.14 38.5284 628.521 38.6484 627.795 38.6484H625.297V37.0419H627.472C627.853 37.0419 628.17 36.9896 628.423 36.8849C628.675 36.7803 628.863 36.6233 628.986 36.4141C629.112 36.2048 629.175 35.9447 629.175 35.6339C629.175 35.32 629.112 35.0553 628.986 34.8398C628.863 34.6244 628.673 34.4613 628.418 34.3505C628.166 34.2366 627.847 34.1797 627.462 34.1797H626.114V42H624.115ZM629.221 37.6974L631.571 42H629.364L627.065 37.6974H629.221ZM633.087 34.1935V32.5455H640.852V34.1935H637.957V42H635.981V34.1935H633.087ZM648.77 32.5455H650.769V38.6854C650.769 39.3748 650.604 39.978 650.275 40.495C649.949 41.0121 649.492 41.4152 648.904 41.7045C648.316 41.9908 647.631 42.1339 646.85 42.1339C646.065 42.1339 645.379 41.9908 644.791 41.7045C644.203 41.4152 643.746 41.0121 643.42 40.495C643.093 39.978 642.93 39.3748 642.93 38.6854V32.5455H644.929V38.5146C644.929 38.8746 645.008 39.1947 645.165 39.4748C645.325 39.7549 645.549 39.9749 645.839 40.1349C646.128 40.295 646.465 40.375 646.85 40.375C647.237 40.375 647.574 40.295 647.861 40.1349C648.15 39.9749 648.373 39.7549 648.53 39.4748C648.69 39.1947 648.77 38.8746 648.77 38.5146V32.5455ZM659.483 35.6016C659.418 35.3769 659.327 35.1784 659.211 35.006C659.094 34.8306 658.95 34.6829 658.781 34.5629C658.615 34.4397 658.424 34.3459 658.209 34.2812C657.996 34.2166 657.761 34.1843 657.502 34.1843C657.019 34.1843 656.595 34.3043 656.228 34.5444C655.865 34.7844 655.582 35.1338 655.379 35.5923C655.176 36.0478 655.074 36.6049 655.074 37.2635C655.074 37.9221 655.174 38.4822 655.374 38.9439C655.574 39.4055 655.857 39.7579 656.224 40.0011C656.59 40.2411 657.022 40.3612 657.521 40.3612C657.973 40.3612 658.36 40.2811 658.68 40.1211C659.003 39.958 659.249 39.7287 659.418 39.4332C659.591 39.1378 659.677 38.7885 659.677 38.3853L660.083 38.4453H657.646V36.9403H661.602V38.1314C661.602 38.9624 661.426 39.6764 661.076 40.2734C660.725 40.8674 660.242 41.326 659.626 41.6491C659.01 41.9692 658.306 42.1293 657.512 42.1293C656.625 42.1293 655.847 41.9338 655.176 41.543C654.505 41.149 653.982 40.5904 653.606 39.8672C653.234 39.1409 653.048 38.2791 653.048 37.282C653.048 36.5156 653.158 35.8324 653.38 35.2322C653.605 34.629 653.918 34.1181 654.322 33.6996C654.725 33.281 655.194 32.9625 655.73 32.744C656.265 32.5254 656.845 32.4162 657.47 32.4162C658.006 32.4162 658.504 32.4947 658.966 32.6516C659.427 32.8055 659.837 33.024 660.194 33.3072C660.554 33.5903 660.848 33.9273 661.076 34.3182C661.303 34.706 661.449 35.1338 661.514 35.6016H659.483ZM669.743 32.5455H671.742V38.6854C671.742 39.3748 671.577 39.978 671.248 40.495C670.922 41.0121 670.465 41.4152 669.877 41.7045C669.289 41.9908 668.604 42.1339 667.823 42.1339C667.038 42.1339 666.352 41.9908 665.764 41.7045C665.176 41.4152 664.719 41.0121 664.393 40.495C664.066 39.978 663.903 39.3748 663.903 38.6854V32.5455H665.902V38.5146C665.902 38.8746 665.981 39.1947 666.138 39.4748C666.298 39.7549 666.522 39.9749 666.812 40.1349C667.101 40.295 667.438 40.375 667.823 40.375C668.211 40.375 668.548 40.295 668.834 40.1349C669.123 39.9749 669.346 39.7549 669.503 39.4748C669.663 39.1947 669.743 38.8746 669.743 38.5146V32.5455ZM674.187 42V32.5455H680.557V34.1935H676.186V36.4464H680.23V38.0945H676.186V40.3519H680.576V42H674.187ZM688.076 35.2646C688.039 34.8922 687.88 34.6029 687.6 34.3967C687.32 34.1905 686.94 34.0874 686.46 34.0874C686.134 34.0874 685.858 34.1335 685.633 34.2259C685.409 34.3151 685.236 34.4397 685.116 34.5998C685 34.7598 684.941 34.9414 684.941 35.1445C684.935 35.3138 684.97 35.4615 685.047 35.5877C685.127 35.7139 685.236 35.8232 685.375 35.9155C685.513 36.0047 685.674 36.0832 685.855 36.1509C686.037 36.2156 686.231 36.271 686.437 36.3171L687.286 36.5202C687.699 36.6126 688.077 36.7357 688.422 36.8896C688.767 37.0434 689.065 37.2327 689.317 37.4574C689.57 37.6821 689.765 37.9467 689.904 38.2514C690.045 38.5561 690.118 38.9054 690.121 39.2994C690.118 39.878 689.97 40.3796 689.678 40.8043C689.388 41.226 688.97 41.5537 688.422 41.7876C687.877 42.0185 687.22 42.1339 686.451 42.1339C685.687 42.1339 685.023 42.0169 684.456 41.783C683.893 41.5491 683.453 41.2029 683.136 40.7443C682.822 40.2827 682.657 39.7118 682.642 39.0316H684.576C684.598 39.3486 684.689 39.6133 684.849 39.8256C685.012 40.0349 685.229 40.1934 685.5 40.3011C685.774 40.4058 686.083 40.4581 686.428 40.4581C686.766 40.4581 687.06 40.4089 687.309 40.3104C687.562 40.2119 687.757 40.0749 687.896 39.8995C688.034 39.7241 688.103 39.5225 688.103 39.2947C688.103 39.0824 688.04 38.9039 687.914 38.7592C687.791 38.6146 687.609 38.4915 687.369 38.3899C687.132 38.2884 686.841 38.196 686.497 38.1129L685.467 37.8544C684.67 37.6605 684.041 37.3574 683.579 36.945C683.118 36.5326 682.888 35.977 682.891 35.2784C682.888 34.706 683.041 34.2058 683.348 33.7781C683.659 33.3503 684.085 33.0163 684.627 32.7763C685.169 32.5362 685.784 32.4162 686.474 32.4162C687.175 32.4162 687.788 32.5362 688.311 32.7763C688.837 33.0163 689.247 33.3503 689.539 33.7781C689.831 34.2058 689.982 34.7013 689.991 35.2646H688.076ZM692.265 42V32.5455H698.636V34.1935H694.264V36.4464H698.308V38.0945H694.264V40.3519H698.654V42H692.265Z" fill="white"/>
<path d="M771.165 42H767.813V32.5455H771.192C772.143 32.5455 772.962 32.7347 773.648 33.1133C774.335 33.4888 774.863 34.0289 775.232 34.7337C775.604 35.4384 775.79 36.2817 775.79 37.2635C775.79 38.2483 775.604 39.0947 775.232 39.8026C774.863 40.5104 774.332 41.0536 773.639 41.4322C772.95 41.8107 772.125 42 771.165 42ZM769.812 40.2873H771.082C771.673 40.2873 772.17 40.1826 772.573 39.9734C772.979 39.761 773.284 39.4332 773.487 38.9901C773.693 38.5438 773.796 37.9683 773.796 37.2635C773.796 36.5649 773.693 35.994 773.487 35.5508C773.284 35.1076 772.981 34.7814 772.577 34.5721C772.174 34.3628 771.677 34.2582 771.086 34.2582H769.812V40.2873ZM783.911 32.5455H785.91V38.6854C785.91 39.3748 785.745 39.978 785.416 40.495C785.09 41.0121 784.633 41.4152 784.045 41.7045C783.457 41.9908 782.772 42.1339 781.991 42.1339C781.206 42.1339 780.519 41.9908 779.932 41.7045C779.344 41.4152 778.887 41.0121 778.561 40.495C778.234 39.978 778.071 39.3748 778.071 38.6854V32.5455H780.07V38.5146C780.07 38.8746 780.149 39.1947 780.306 39.4748C780.466 39.7549 780.69 39.9749 780.98 40.1349C781.269 40.295 781.606 40.375 781.991 40.375C782.378 40.375 782.715 40.295 783.002 40.1349C783.291 39.9749 783.514 39.7549 783.671 39.4748C783.831 39.1947 783.911 38.8746 783.911 38.5146V32.5455ZM787.995 34.1935V32.5455H795.759V34.1935H792.865V42H790.889V34.1935H787.995ZM805.749 35.8555H803.727C803.69 35.5939 803.614 35.3615 803.5 35.1584C803.386 34.9522 803.24 34.7768 803.062 34.6321C802.883 34.4875 802.677 34.3767 802.443 34.2997C802.212 34.2228 801.961 34.1843 801.691 34.1843C801.201 34.1843 800.775 34.3059 800.412 34.549C800.049 34.7891 799.767 35.1399 799.567 35.6016C799.367 36.0601 799.267 36.6172 799.267 37.2727C799.267 37.9467 799.367 38.513 799.567 38.9716C799.77 39.4302 800.053 39.7764 800.416 40.0103C800.78 40.2442 801.2 40.3612 801.677 40.3612C801.945 40.3612 802.192 40.3258 802.42 40.255C802.651 40.1842 802.856 40.0811 803.034 39.9457C803.213 39.8072 803.36 39.6394 803.477 39.4425C803.597 39.2455 803.68 39.0208 803.727 38.7685L805.749 38.7777C805.696 39.2116 805.565 39.6302 805.356 40.0334C805.15 40.4335 804.871 40.792 804.521 41.109C804.173 41.4229 803.757 41.6722 803.274 41.8569C802.794 42.0385 802.251 42.1293 801.644 42.1293C800.801 42.1293 800.047 41.9384 799.382 41.5568C798.721 41.1752 798.198 40.6228 797.813 39.8995C797.431 39.1763 797.24 38.3007 797.24 37.2727C797.24 36.2417 797.434 35.3646 797.822 34.6413C798.21 33.9181 798.736 33.3672 799.401 32.9886C800.066 32.607 800.814 32.4162 801.644 32.4162C802.192 32.4162 802.7 32.4931 803.168 32.647C803.639 32.8009 804.056 33.0256 804.419 33.321C804.782 33.6134 805.078 33.9719 805.305 34.3967C805.536 34.8214 805.684 35.3076 805.749 35.8555ZM807.982 42V32.5455H809.981V36.4464H814.039V32.5455H816.033V42H814.039V38.0945H809.981V42H807.982Z" fill="white"/>
<path d="M889.801 32.5455H891.777V39.1378C891.777 39.7472 891.64 40.2765 891.366 40.7259C891.095 41.1752 890.718 41.5214 890.235 41.7646C889.752 42.0077 889.19 42.1293 888.55 42.1293C887.981 42.1293 887.464 42.0292 886.999 41.8292C886.537 41.6261 886.171 41.3183 885.9 40.9059C885.629 40.4904 885.495 39.9687 885.499 39.3409H887.488C887.494 39.5902 887.545 39.8041 887.641 39.9826C887.739 40.158 887.873 40.2934 888.042 40.3888C888.215 40.4812 888.418 40.5273 888.652 40.5273C888.898 40.5273 889.106 40.475 889.275 40.3704C889.447 40.2627 889.578 40.1057 889.667 39.8995C889.756 39.6933 889.801 39.4394 889.801 39.1378V32.5455ZM895.859 42H893.717L896.981 32.5455H899.557L902.816 42H900.674L898.306 34.706H898.232L895.859 42ZM895.725 38.2837H900.785V39.8441H895.725V38.2837ZM904.754 42V32.5455H908.484C909.201 32.5455 909.812 32.6824 910.317 32.9563C910.822 33.2272 911.207 33.6042 911.471 34.0874C911.739 34.5675 911.873 35.1214 911.873 35.7493C911.873 36.3771 911.737 36.9311 911.467 37.4112C911.196 37.8913 910.803 38.2653 910.289 38.533C909.779 38.8008 909.16 38.9347 908.434 38.9347H906.056V37.3327H908.11C908.495 37.3327 908.812 37.2666 909.061 37.1342C909.314 36.9988 909.502 36.8126 909.625 36.5756C909.751 36.3356 909.814 36.0601 909.814 35.7493C909.814 35.4354 909.751 35.1615 909.625 34.9276C909.502 34.6906 909.314 34.5075 909.061 34.3782C908.809 34.2459 908.489 34.1797 908.101 34.1797H906.753V42H904.754ZM914.509 42H912.367L915.631 32.5455H918.207L921.466 42H919.324L916.956 34.706H916.882L914.509 42ZM914.375 38.2837H919.435V39.8441H914.375V38.2837ZM931.312 32.5455V42H929.586L925.472 36.0494H925.403V42H923.404V32.5455H925.158L929.239 38.4915H929.322V32.5455H931.312ZM933.764 42V32.5455H940.134V34.1935H935.763V36.4464H939.807V38.0945H935.763V40.3519H940.153V42H933.764ZM947.652 35.2646C947.616 34.8922 947.457 34.6029 947.177 34.3967C946.897 34.1905 946.517 34.0874 946.037 34.0874C945.71 34.0874 945.435 34.1335 945.21 34.2259C944.986 34.3151 944.813 34.4397 944.693 34.5998C944.576 34.7598 944.518 34.9414 944.518 35.1445C944.512 35.3138 944.547 35.4615 944.624 35.5877C944.704 35.7139 944.813 35.8232 944.952 35.9155C945.09 36.0047 945.25 36.0832 945.432 36.1509C945.614 36.2156 945.807 36.271 946.014 36.3171L946.863 36.5202C947.275 36.6126 947.654 36.7357 947.999 36.8896C948.343 37.0434 948.642 37.2327 948.894 37.4574C949.147 37.6821 949.342 37.9467 949.481 38.2514C949.622 38.5561 949.695 38.9054 949.698 39.2994C949.695 39.878 949.547 40.3796 949.254 40.8043C948.965 41.226 948.547 41.5537 947.999 41.7876C947.454 42.0185 946.797 42.1339 946.027 42.1339C945.264 42.1339 944.599 42.0169 944.033 41.783C943.47 41.5491 943.03 41.2029 942.713 40.7443C942.399 40.2827 942.234 39.7118 942.219 39.0316H944.153C944.175 39.3486 944.266 39.6133 944.426 39.8256C944.589 40.0349 944.806 40.1934 945.076 40.3011C945.35 40.4058 945.66 40.4581 946.004 40.4581C946.343 40.4581 946.637 40.4089 946.886 40.3104C947.139 40.2119 947.334 40.0749 947.472 39.8995C947.611 39.7241 947.68 39.5225 947.68 39.2947C947.68 39.0824 947.617 38.9039 947.491 38.7592C947.368 38.6146 947.186 38.4915 946.946 38.3899C946.709 38.2884 946.418 38.196 946.074 38.1129L945.044 37.8544C944.247 37.6605 943.618 37.3574 943.156 36.945C942.694 36.5326 942.465 35.977 942.468 35.2784C942.465 34.706 942.617 34.2058 942.925 33.7781C943.236 33.3503 943.662 33.0163 944.204 32.7763C944.746 32.5362 945.361 32.4162 946.051 32.4162C946.752 32.4162 947.365 32.5362 947.888 32.7763C948.414 33.0163 948.824 33.3503 949.116 33.7781C949.408 34.2058 949.559 34.7013 949.568 35.2646H947.652ZM951.842 42V32.5455H958.213V34.1935H953.841V36.4464H957.885V38.0945H953.841V40.3519H958.231V42H951.842Z" fill="white"/>
</g>
<g clip-path="url(#clip2_1_2905)">
<path d="M990.25 28.75L998.5 37L990.25 45.25" stroke="white" stroke-width="2.75" stroke-linecap="round" stroke-linejoin="round"/>
</g>
<defs>
<clipPath id="clip0_1_2905">
<rect width="22" height="22" fill="white" transform="translate(0 26)"/>
</clipPath>
<clipPath id="clip1_1_2905">
<rect width="916" height="28.9688" fill="white" transform="translate(44 22.5156)"/>
</clipPath>
<clipPath id="clip2_1_2905">
<rect width="22" height="22" fill="white" transform="translate(982 26)"/>
</clipPath>
</defs>
</svg>
